<?xml version="1.0"?><svg xmlns="http://www.w3.org/2000/svg" xmlns:xlink="http://www.w3.org/1999/xlink" viewBox="30.66 28.58 273.62 62.84" preserveAspectRatio="xMidYMid" width="100%" height="100%"><clipPath id="93"><rect x="0.3" y="0.3" width="539.4" height="719.15" /></clipPath><g id="drawing"><rect x="30.66" y="28.58" width="100%" height="100%" fill="rgb(255, 255, 255)" /><g id="page" clip-path="url(#93)"><g id="Arrow"><line x1="245.39" y1="46.35" x2="144.93" y2="46.35" stroke="rgb(0, 0, 0)" stroke-width="0.6" shape-rendering="auto" /><path d="M249.64 46.35 L243.64 44.85 C244.83 45.69 244.83 47.01 243.64 47.85 Z" stroke="rgb(0, 0, 0)" stroke-width="0" fill-rule="evenodd" stroke-linejoin="miter" stroke-miterlimit="6.93525005514877" fill="rgb(0, 0, 0)" shape-rendering="geometricPrecision" /></g><g id="Solid"><path d="M51.9 49.38 L51.9 49.38 L51.75 49.12 L51.6 48.86 L64.07 41.66 L64.22 41.92 L64.37 42.18 Z" stroke="rgb(0, 0, 0)" stroke-width="0" fill-rule="evenodd" stroke-linejoin="miter" fill="rgb(0, 0, 0)" shape-rendering="geometricPrecision" /><line x1="53.05" y1="51.36" x2="65.52" y2="44.16" stroke="rgb(0, 0, 0)" stroke-width="0.6" shape-rendering="auto" /><line x1="50.45" y1="46.88" x2="62.92" y2="39.68" stroke="rgb(0, 0, 0)" stroke-width="0.6" shape-rendering="auto" /></g><g id="Solid"><path d="M51.6 48.86 L51.6 48.86 L51.75 49.12 L51.9 49.38 L42.89 54.58 L42.74 54.32 L42.59 54.06 Z" stroke="rgb(0, 0, 0)" stroke-width="0" fill-rule="evenodd" stroke-linejoin="miter" fill="rgb(0, 0, 0)" shape-rendering="geometricPrecision" /></g><g><text xml:space="preserve" text-anchor="end" text-rendering="geometricPrecision"><tspan x="42.05" y="60.22" font-family="Arial" font-size="10" fill="rgb(0, 0, 0)">R</tspan><tspan font-family="Arial" dy="2.26" font-size="7.5" fill="rgb(0, 0, 0)">1</tspan></text></g><g id="Solid"><path d="M64.37 42.18 L64.37 42.18 L64.22 41.92 L64.07 41.66 L72.36 36.87 L72.51 37.13 L72.66 37.39 Z" stroke="rgb(0, 0, 0)" stroke-width="0" fill-rule="evenodd" stroke-linejoin="miter" fill="rgb(0, 0, 0)" shape-rendering="geometricPrecision" /></g><g><text xml:space="preserve" text-anchor="start" text-rendering="geometricPrecision"><tspan x="73.09" y="38.62" font-family="Arial" font-size="10" fill="rgb(0, 0, 0)">R</tspan><tspan font-family="Arial" dy="2.26" font-size="7.5" fill="rgb(0, 0, 0)">2</tspan></text></g><g><text xml:space="preserve" text-anchor="start" text-rendering="geometricPrecision"><tspan x="119.13" y="49.55" font-family="Arial" font-size="10" fill="rgb(0, 0, 0)">H</tspan><tspan font-family="Arial" dy="2.26" font-size="7.5" fill="rgb(0, 0, 0)">2</tspan></text></g><g><text xml:space="preserve" text-anchor="end" text-rendering="geometricPrecision"><tspan x="276.84" y="61.91" font-family="Arial" font-size="10" fill="rgb(0, 0, 0)">R</tspan><tspan font-family="Arial" dy="2.26" font-size="7.5" fill="rgb(0, 0, 0)">1</tspan></text></g><g><text xml:space="preserve" text-anchor="start" text-rendering="geometricPrecision"><tspan x="292.89" y="61.86" font-family="Arial" font-size="10" fill="rgb(0, 0, 0)">R</tspan><tspan font-family="Arial" dy="2.26" font-size="7.5" fill="rgb(0, 0, 0)">2</tspan></text></g><g id="Solid"><path d="M294.11 53.27 L294.11 53.27 L293.85 53.42 L293.59 53.57 L289.09 45.8 L289.26 45.5 L289.61 45.5 Z" stroke="rgb(0, 0, 0)" stroke-width="0" fill-rule="evenodd" stroke-linejoin="miter" fill="rgb(0, 0, 0)" shape-rendering="geometricPrecision" /></g><g id="Solid"><path d="M289.09 45.2 L289.09 45.2 L289.26 45.5 L289.09 45.8 L275.03 45.83 L274.86 45.53 L275.03 45.23 Z" stroke="rgb(0, 0, 0)" stroke-width="0" fill-rule="evenodd" stroke-linejoin="miter" fill="rgb(0, 0, 0)" shape-rendering="geometricPrecision" /><line x1="287.77" y1="48.1" x2="276.36" y2="48.12" stroke="rgb(0, 0, 0)" stroke-width="0.6" shape-rendering="auto" /></g><g id="Solid"><path d="M274.51 45.53 L274.51 45.53 L274.86 45.53 L275.03 45.83 L270.59 53.56 L270.33 53.41 L270.07 53.26 Z" stroke="rgb(0, 0, 0)" stroke-width="0" fill-rule="evenodd" stroke-linejoin="miter" fill="rgb(0, 0, 0)" shape-rendering="geometricPrecision" /></g><g><text xml:space="preserve" text-anchor="start" text-rendering="geometricPrecision"><tspan x="98.88" y="49.55" font-family="Arial" font-size="10" fill="rgb(0, 0, 0)">+</tspan></text></g><g><text xml:space="preserve" text-anchor="start" text-rendering="geometricPrecision"><tspan x="159.33" y="38.05" font-family="Arial" font-size="10" fill="rgb(0, 0, 0)">Lindlar's Catalyst</tspan></text></g><g><text xml:space="preserve" text-anchor="start" text-rendering="geometricPrecision"><tspan x="264.04" y="36.97" font-family="Arial" font-size="10" fill="rgb(0, 0, 0)">H</tspan></text></g><g id="Solid"><path d="M275.03 45.23 L275.03 45.23 L274.86 45.53 L274.51 45.53 L270.46 38.53 L270.72 38.38 L270.98 38.23 Z" stroke="rgb(0, 0, 0)" stroke-width="0" fill-rule="evenodd" stroke-linejoin="miter" fill="rgb(0, 0, 0)" shape-rendering="geometricPrecision" /></g><g id="Solid"><path d="M289.61 45.5 L289.61 45.5 L289.26 45.5 L289.09 45.2 L293.09 38.24 L293.35 38.39 L293.61 38.54 Z" stroke="rgb(0, 0, 0)" stroke-width="0" fill-rule="evenodd" stroke-linejoin="miter" fill="rgb(0, 0, 0)" shape-rendering="geometricPrecision" /></g><g><text xml:space="preserve" text-anchor="start" text-rendering="geometricPrecision"><tspan x="292.84" y="36.92" font-family="Arial" font-size="10" fill="rgb(0, 0, 0)">H</tspan></text></g><g><text xml:space="preserve" text-anchor="start" text-rendering="geometricPrecision"><tspan x="30.75" y="88.88" font-family="Arial" font-size="10" fill="rgb(0, 0, 0)">R = Alkyl, Aryl, H</tspan></text></g></g></g></svg>