<?xml version="1.0"?><svg xmlns="http://www.w3.org/2000/svg" xmlns:xlink="http://www.w3.org/1999/xlink" viewBox="17.63 33.96 255.29 75.84" preserveAspectRatio="xMidYMid" width="100%" height="100%"><clipPath id="165"><rect x="0.3" y="0.3" width="539.4" height="719.15" /></clipPath><g id="drawing"><rect x="17.63" y="33.96" width="100%" height="100%" fill="rgb(255, 255, 255)" /><g id="page" clip-path="url(#165)"><g><text xml:space="preserve" text-anchor="start" text-rendering="geometricPrecision"><tspan x="18" y="107.25" font-family="Arial" font-size="10" fill="rgb(0, 0, 0)">R = Alkyl, Aryl, H</tspan></text></g><g><text xml:space="preserve" text-anchor="end" text-rendering="geometricPrecision"><tspan x="29.02" y="63.9" font-family="Arial" font-size="10" fill="rgb(0, 0, 0)">R</tspan><tspan font-family="Arial" dy="2.26" font-size="7.5" fill="rgb(0, 0, 0)">2</tspan></text></g><g id="Solid"><path d="M29.86 58.26 L29.86 58.26 L29.71 58 L29.56 57.74 L38.42 52.63 L38.72 52.8 L38.72 53.15 Z" stroke="rgb(0, 0, 0)" stroke-width="0" fill-rule="evenodd" stroke-linejoin="miter" fill="rgb(0, 0, 0)" shape-rendering="geometricPrecision" /></g><g id="Solid"><path d="M38.72 53.15 L38.72 53.15 L38.72 52.8 L39.32 52.8 L47.16 57.33 L47.01 57.59 L46.86 57.85 Z" stroke="rgb(0, 0, 0)" stroke-width="0" fill-rule="evenodd" stroke-linejoin="miter" fill="rgb(0, 0, 0)" shape-rendering="geometricPrecision" /></g><g><text xml:space="preserve" text-anchor="start" text-rendering="geometricPrecision"><tspan x="47.59" y="63.9" font-family="Arial" font-size="10" fill="rgb(0, 0, 0)">R</tspan><tspan font-family="Arial" dy="2.26" font-size="7.5" fill="rgb(0, 0, 0)">3</tspan></text></g><g id="Solid"><path d="M39.02 52.28 L39.02 52.28 L38.72 52.8 L38.42 52.63 L38.42 45.8 L38.72 45.8 L39.02 45.8 Z" stroke="rgb(0, 0, 0)" stroke-width="0" fill-rule="evenodd" stroke-linejoin="miter" fill="rgb(0, 0, 0)" shape-rendering="geometricPrecision" /></g><g><text xml:space="preserve" text-anchor="start" text-rendering="geometricPrecision"><tspan x="35.12" y="42.3" font-family="Arial" font-size="10" fill="rgb(0, 0, 0)">R</tspan><tspan font-family="Arial" dy="2.26" font-size="7.5" fill="rgb(0, 0, 0)">1</tspan></text></g><g id="Solid"><path d="M39.32 52.8 L39.32 52.8 L38.72 52.8 L39.02 52.28 L46.86 47.75 L47.01 48.01 L47.16 48.27 Z" stroke="rgb(0, 0, 0)" stroke-width="0" fill-rule="evenodd" stroke-linejoin="miter" fill="rgb(0, 0, 0)" shape-rendering="geometricPrecision" /></g><g><text xml:space="preserve" text-anchor="start" text-rendering="geometricPrecision"><tspan x="47.59" y="49.5" font-family="Arial" font-size="10" fill="rgb(0, 0, 0)">H</tspan></text></g><g><text xml:space="preserve" text-anchor="start" text-rendering="geometricPrecision"><tspan x="73.38" y="53.28" font-family="Arial" font-size="10" fill="rgb(0, 0, 0)">+</tspan></text></g><g><text xml:space="preserve" text-anchor="start" text-rendering="geometricPrecision"><tspan x="93.63" y="53.28" font-family="Arial" font-size="10" fill="rgb(0, 0, 0)">Br</tspan><tspan font-family="Arial" dy="2.26" font-size="7.5" fill="rgb(0, 0, 0)">2</tspan></text></g><g id="Arrow"><line x1="152.88" y1="50.08" x2="122.23" y2="50.08" stroke="rgb(0, 0, 0)" stroke-width="0.6" shape-rendering="auto" /><path d="M157.13 50.08 L151.13 48.58 C152.32 49.42 152.32 50.74 151.13 51.58 Z" stroke="rgb(0, 0, 0)" stroke-width="0" fill-rule="evenodd" stroke-linejoin="miter" stroke-miterlimit="6.93525005514877" fill="rgb(0, 0, 0)" shape-rendering="geometricPrecision" /></g><g><text xml:space="preserve" text-anchor="start" text-rendering="geometricPrecision"><tspan x="136.63" y="44.23" font-family="Symbol" font-size="10" fill="rgb(0, 0, 0)">D</tspan></text></g><g><text xml:space="preserve" text-anchor="end" text-rendering="geometricPrecision"><tspan x="182.92" y="63.9" font-family="Arial" font-size="10" fill="rgb(0, 0, 0)">R</tspan><tspan font-family="Arial" dy="2.26" font-size="7.5" fill="rgb(0, 0, 0)">2</tspan></text></g><g id="Solid"><path d="M183.75 58.26 L183.75 58.26 L183.6 58 L183.45 57.74 L192.31 52.63 L192.61 52.8 L192.61 53.15 Z" stroke="rgb(0, 0, 0)" stroke-width="0" fill-rule="evenodd" stroke-linejoin="miter" fill="rgb(0, 0, 0)" shape-rendering="geometricPrecision" /></g><g id="Solid"><path d="M192.61 53.15 L192.61 53.15 L192.61 52.8 L193.21 52.8 L201.06 57.34 L200.91 57.59 L200.76 57.85 Z" stroke="rgb(0, 0, 0)" stroke-width="0" fill-rule="evenodd" stroke-linejoin="miter" fill="rgb(0, 0, 0)" shape-rendering="geometricPrecision" /></g><g><text xml:space="preserve" text-anchor="start" text-rendering="geometricPrecision"><tspan x="201.48" y="63.9" font-family="Arial" font-size="10" fill="rgb(0, 0, 0)">R</tspan><tspan font-family="Arial" dy="2.26" font-size="7.5" fill="rgb(0, 0, 0)">3</tspan></text></g><g><text xml:space="preserve" text-anchor="start" text-rendering="geometricPrecision"><tspan x="189.01" y="42.3" font-family="Arial" font-size="10" fill="rgb(0, 0, 0)">R</tspan><tspan font-family="Arial" dy="2.26" font-size="7.5" fill="rgb(0, 0, 0)">1</tspan></text></g><g id="Solid"><path d="M192.91 52.28 L192.91 52.28 L192.61 52.8 L192.31 52.63 L192.31 45.8 L192.61 45.8 L192.91 45.8 Z" stroke="rgb(0, 0, 0)" stroke-width="0" fill-rule="evenodd" stroke-linejoin="miter" fill="rgb(0, 0, 0)" shape-rendering="geometricPrecision" /></g><g id="Solid"><path d="M193.21 52.8 L193.21 52.8 L192.61 52.8 L192.91 52.28 L200.96 47.63 L201.11 47.89 L201.26 48.15 Z" stroke="rgb(0, 0, 0)" stroke-width="0" fill-rule="evenodd" stroke-linejoin="miter" fill="rgb(0, 0, 0)" shape-rendering="geometricPrecision" /></g><g><text xml:space="preserve" text-anchor="start" text-rendering="geometricPrecision"><tspan x="201.76" y="49.5" font-family="Arial" font-size="10" fill="rgb(0, 0, 0)">Br</tspan></text></g><g><text xml:space="preserve" text-anchor="start" text-rendering="geometricPrecision"><tspan x="247.53" y="53.28" font-family="Arial" font-size="10" fill="rgb(0, 0, 0)">+</tspan></text></g><g><text xml:space="preserve" text-anchor="end" text-rendering="geometricPrecision"><tspan x="272.78" y="53.28" font-family="Arial" font-size="10" fill="rgb(0, 0, 0)">HBr</tspan></text></g><g><text xml:space="preserve" text-anchor="start" text-rendering="geometricPrecision"><tspan x="227.28" y="53.28" font-family="Arial" font-size="10" fill="rgb(0, 0, 0)">+</tspan></text></g></g></g></svg>