<?xml version="1.0"?><svg xmlns="http://www.w3.org/2000/svg" xmlns:xlink="http://www.w3.org/1999/xlink" viewBox="18 37.52 244.03 72.28" preserveAspectRatio="xMidYMid" width="100%" height="100%"><clipPath id="218"><rect x="0.3" y="0.3" width="539.4" height="719.15" /></clipPath><g id="drawing"><rect x="18" y="37.52" width="100%" height="100%" fill="rgb(255, 255, 255)" /><g id="page" clip-path="url(#218)"><g><text xml:space="preserve" text-anchor="start" text-rendering="geometricPrecision"><tspan x="18" y="107.25" font-family="Arial" font-size="10" fill="rgb(0, 0, 0)">R = Alkyl, Aryl, H</tspan></text></g><g id="Solid"><path d="M55.36 54.69 L55.36 54.69 L55.36 54.39 L55.36 54.09 L65.3 54.09 L65.3 54.39 L65.3 54.69 Z" stroke="rgb(0, 0, 0)" stroke-width="0" fill-rule="evenodd" stroke-linejoin="miter" fill="rgb(0, 0, 0)" shape-rendering="geometricPrecision" /></g><g><text xml:space="preserve" text-anchor="start" text-rendering="geometricPrecision"><tspan x="66.11" y="58.29" font-family="Arial" font-size="10" fill="rgb(0, 0, 0)">R</tspan><tspan font-family="Arial" dy="2.26" font-size="7.5" fill="rgb(0, 0, 0)">2</tspan></text></g><g id="Solid"><path d="M55.36 54.09 L55.36 54.09 L55.36 54.39 L55.36 54.69 L41.01 54.69 L41.01 54.39 L41.01 54.09 Z" stroke="rgb(0, 0, 0)" stroke-width="0" fill-rule="evenodd" stroke-linejoin="miter" fill="rgb(0, 0, 0)" shape-rendering="geometricPrecision" /><line x1="55.36" y1="51.81" x2="41.01" y2="51.81" stroke="rgb(0, 0, 0)" stroke-width="0.6" shape-rendering="auto" /><line x1="55.36" y1="56.97" x2="41.01" y2="56.97" stroke="rgb(0, 0, 0)" stroke-width="0.6" shape-rendering="auto" /></g><g id="Solid"><path d="M41.01 54.09 L41.01 54.09 L41.01 54.39 L41.01 54.69 L29.86 54.69 L29.86 54.39 L29.86 54.09 Z" stroke="rgb(0, 0, 0)" stroke-width="0" fill-rule="evenodd" stroke-linejoin="miter" fill="rgb(0, 0, 0)" shape-rendering="geometricPrecision" /></g><g><text xml:space="preserve" text-anchor="end" text-rendering="geometricPrecision"><tspan x="29.43" y="58.29" font-family="Arial" font-size="10" fill="rgb(0, 0, 0)">R</tspan><tspan font-family="Arial" dy="2.26" font-size="7.5" fill="rgb(0, 0, 0)">1</tspan></text></g><g><text xml:space="preserve" text-anchor="start" text-rendering="geometricPrecision"><tspan x="91.9" y="58.42" font-family="Arial" font-size="10" fill="rgb(0, 0, 0)">+</tspan></text></g><g><text xml:space="preserve" text-anchor="start" text-rendering="geometricPrecision"><tspan x="112.15" y="58.42" font-family="Arial" font-size="10" fill="rgb(0, 0, 0)">2 H</tspan><tspan font-family="Arial" dy="2.26" font-size="7.5" fill="rgb(0, 0, 0)">2</tspan></text></g><g id="Arrow"><line x1="193.11" y1="55.22" x2="146.31" y2="55.22" stroke="rgb(0, 0, 0)" stroke-width="0.6" shape-rendering="auto" /><path d="M197.36 55.22 L191.36 53.72 C192.55 54.56 192.55 55.88 191.36 56.72 Z" stroke="rgb(0, 0, 0)" stroke-width="0" fill-rule="evenodd" stroke-linejoin="miter" stroke-miterlimit="6.93525005514877" fill="rgb(0, 0, 0)" shape-rendering="geometricPrecision" /></g><g><text xml:space="preserve" text-anchor="start" text-rendering="geometricPrecision"><tspan x="160.71" y="46.92" font-family="Arial" font-size="10" fill="rgb(0, 0, 0)">Pd/C</tspan></text></g><g><text xml:space="preserve" text-anchor="start" text-rendering="geometricPrecision"><tspan x="247.63" y="45.86" font-family="Arial" font-size="10" fill="rgb(0, 0, 0)">H</tspan></text></g><g id="Solid"><path d="M247.9 47.14 L247.9 47.14 L248.16 47.29 L248.42 47.44 L244.58 54.09 L244.06 54.39 L243.89 54.09 Z" stroke="rgb(0, 0, 0)" stroke-width="0" fill-rule="evenodd" stroke-linejoin="miter" fill="rgb(0, 0, 0)" shape-rendering="geometricPrecision" /></g><g><text xml:space="preserve" text-anchor="start" text-rendering="geometricPrecision"><tspan x="247.63" y="70.71" font-family="Arial" font-size="10" fill="rgb(0, 0, 0)">R</tspan><tspan font-family="Arial" dy="2.26" font-size="7.5" fill="rgb(0, 0, 0)">2</tspan></text></g><g id="Solid"><path d="M243.89 54.69 L243.89 54.69 L244.06 54.39 L244.58 54.69 L248.84 62.06 L248.58 62.21 L248.32 62.36 Z" stroke="rgb(0, 0, 0)" stroke-width="0" fill-rule="evenodd" stroke-linejoin="miter" fill="rgb(0, 0, 0)" shape-rendering="geometricPrecision" /></g><g id="Solid"><path d="M243.89 54.09 L243.89 54.09 L244.06 54.39 L243.89 54.69 L229.88 54.69 L229.71 54.39 L229.88 54.09 Z" stroke="rgb(0, 0, 0)" stroke-width="0" fill-rule="evenodd" stroke-linejoin="miter" fill="rgb(0, 0, 0)" shape-rendering="geometricPrecision" /></g><g id="Solid"><path d="M229.19 54.69 L229.19 54.69 L229.71 54.39 L229.88 54.69 L225.45 62.36 L225.19 62.21 L224.93 62.06 Z" stroke="rgb(0, 0, 0)" stroke-width="0" fill-rule="evenodd" stroke-linejoin="miter" fill="rgb(0, 0, 0)" shape-rendering="geometricPrecision" /></g><g><text xml:space="preserve" text-anchor="end" text-rendering="geometricPrecision"><tspan x="231.68" y="70.71" font-family="Arial" font-size="10" fill="rgb(0, 0, 0)">R</tspan><tspan font-family="Arial" dy="2.26" font-size="7.5" fill="rgb(0, 0, 0)">1</tspan></text></g><g><text xml:space="preserve" text-anchor="start" text-rendering="geometricPrecision"><tspan x="211.76" y="58.29" font-family="Arial" font-size="10" fill="rgb(0, 0, 0)">H</tspan></text></g><g id="Solid"><path d="M229.19 54.09 L229.19 54.09 L229.71 54.39 L229.19 54.69 L219.8 54.69 L219.8 54.39 L219.8 54.09 Z" stroke="rgb(0, 0, 0)" stroke-width="0" fill-rule="evenodd" stroke-linejoin="miter" fill="rgb(0, 0, 0)" shape-rendering="geometricPrecision" /></g><g><text xml:space="preserve" text-anchor="start" text-rendering="geometricPrecision"><tspan x="254.81" y="58.29" font-family="Arial" font-size="10" fill="rgb(0, 0, 0)">H</tspan></text></g><g id="Solid"><path d="M244.58 54.69 L244.58 54.69 L244.06 54.39 L244.58 54.09 L254.1 54.09 L254.1 54.39 L254.1 54.69 Z" stroke="rgb(0, 0, 0)" stroke-width="0" fill-rule="evenodd" stroke-linejoin="miter" fill="rgb(0, 0, 0)" shape-rendering="geometricPrecision" /></g><g><text xml:space="preserve" text-anchor="start" text-rendering="geometricPrecision"><tspan x="218.93" y="45.86" font-family="Arial" font-size="10" fill="rgb(0, 0, 0)">H</tspan></text></g><g id="Solid"><path d="M229.88 54.09 L229.88 54.09 L229.71 54.39 L229.19 54.09 L225.35 47.44 L225.61 47.29 L225.87 47.14 Z" stroke="rgb(0, 0, 0)" stroke-width="0" fill-rule="evenodd" stroke-linejoin="miter" fill="rgb(0, 0, 0)" shape-rendering="geometricPrecision" /></g></g></g></svg>