<?xml version="1.0"?><svg xmlns="http://www.w3.org/2000/svg" xmlns:xlink="http://www.w3.org/1999/xlink" viewBox="17.95 33.2 403.28 76.8" preserveAspectRatio="xMidYMid" width="100%" height="100%"><clipPath id="376"><rect x="0.3" y="0.3" width="539.4" height="719.15" /></clipPath><g id="drawing"><rect x="17.95" y="33.2" width="100%" height="100%" fill="rgb(255, 255, 255)" /><g id="page" clip-path="url(#376)"><g><text xml:space="preserve" text-anchor="start" text-rendering="geometricPrecision"><tspan x="17.95" y="107.45" font-family="Arial" font-size="10" fill="rgb(0, 0, 0)">R = Alkyl, Aryl, H</tspan></text></g><g id="Arrow"><line x1="217.04" y1="53.84" x2="167.33" y2="53.84" stroke="rgb(0, 0, 0)" stroke-width="0.6" shape-rendering="auto" /><path d="M221.29 53.84 L215.29 52.34 C216.48 53.18 216.48 54.5 215.29 55.34 Z" stroke="rgb(0, 0, 0)" stroke-width="0" fill-rule="evenodd" stroke-linejoin="miter" stroke-miterlimit="6.93525005514877" fill="rgb(0, 0, 0)" shape-rendering="geometricPrecision" /></g><g><text xml:space="preserve" text-anchor="start" text-rendering="geometricPrecision"><tspan x="74.37" y="57.04" font-family="Arial" font-size="10" fill="rgb(0, 0, 0)">+</tspan></text></g><g id="Solid"><path d="M39.45 56.49 L39.45 56.49 L39.75 56.66 L39.75 57.01 L30.93 62.09 L30.78 61.83 L30.63 61.57 Z" stroke="rgb(0, 0, 0)" stroke-width="0" fill-rule="evenodd" stroke-linejoin="miter" fill="rgb(0, 0, 0)" shape-rendering="geometricPrecision" /></g><g><text xml:space="preserve" text-anchor="end" text-rendering="geometricPrecision"><tspan x="30.1" y="67.73" font-family="Arial" font-size="10" fill="rgb(0, 0, 0)">R</tspan><tspan font-family="Arial" dy="2.26" font-size="7.5" fill="rgb(0, 0, 0)">2</tspan></text></g><g id="Solid"><path d="M39.75 57.01 L39.75 57.01 L39.75 56.66 L40.05 56.49 L48.16 61.17 L48.01 61.43 L47.86 61.69 Z" stroke="rgb(0, 0, 0)" stroke-width="0" fill-rule="evenodd" stroke-linejoin="miter" fill="rgb(0, 0, 0)" shape-rendering="geometricPrecision" /></g><g><text xml:space="preserve" text-anchor="start" text-rendering="geometricPrecision"><tspan x="48.58" y="67.73" font-family="Arial" font-size="10" fill="rgb(0, 0, 0)">R</tspan><tspan font-family="Arial" dy="2.26" font-size="7.5" fill="rgb(0, 0, 0)">1</tspan></text></g><g id="Solid"><path d="M40.05 56.49 L40.05 56.49 L39.75 56.66 L39.45 56.49 L39.45 48 L39.75 48 L40.05 48 Z" stroke="rgb(0, 0, 0)" stroke-width="0" fill-rule="evenodd" stroke-linejoin="miter" fill="rgb(0, 0, 0)" shape-rendering="geometricPrecision" /></g><g><text xml:space="preserve" text-anchor="start" text-rendering="geometricPrecision"><tspan x="35.85" y="46.21" font-family="Arial" font-size="10" fill="rgb(0, 0, 0)">OH</tspan></text></g><g id="Solid"><path d="M135.04 60.65 L135.04 60.65 L135.39 60.54 L135.74 60.43 L131.17 74.49 L130.95 74.19 L130.73 73.89 Z" stroke="rgb(0, 0, 0)" stroke-width="0" fill-rule="evenodd" stroke-linejoin="miter" fill="rgb(0, 0, 0)" shape-rendering="geometricPrecision" /></g><g><text xml:space="preserve" text-anchor="start" text-rendering="geometricPrecision"><tspan x="120.18" y="56" font-family="Arial" font-size="10" fill="rgb(0, 0, 0)">N</tspan></text></g><g id="Solid"><path d="M130.73 73.89 L130.73 73.89 L130.95 74.19 L131.17 74.49 L116.38 74.49 L116.6 74.19 L116.82 73.89 Z" stroke="rgb(0, 0, 0)" stroke-width="0" fill-rule="evenodd" stroke-linejoin="miter" fill="rgb(0, 0, 0)" shape-rendering="geometricPrecision" /></g><g id="Solid"><path d="M116.82 73.89 L116.82 73.89 L116.6 74.19 L116.38 74.49 L111.82 60.43 L112.17 60.54 L112.52 60.65 Z" stroke="rgb(0, 0, 0)" stroke-width="0" fill-rule="evenodd" stroke-linejoin="miter" fill="rgb(0, 0, 0)" shape-rendering="geometricPrecision" /></g><g id="Solid"><path d="M112.52 60.65 L112.52 60.65 L112.17 60.54 L111.82 60.43 L119.53 54.82 L119.71 55.06 L119.88 55.3 Z" stroke="rgb(0, 0, 0)" stroke-width="0" fill-rule="evenodd" stroke-linejoin="miter" fill="rgb(0, 0, 0)" shape-rendering="geometricPrecision" /></g><g id="Solid"><path d="M127.72 55.33 L127.72 55.33 L127.89 55.09 L128.07 54.85 L135.74 60.43 L135.39 60.54 L135.04 60.65 Z" stroke="rgb(0, 0, 0)" stroke-width="0" fill-rule="evenodd" stroke-linejoin="miter" fill="rgb(0, 0, 0)" shape-rendering="geometricPrecision" /></g><g id="Solid"><path d="M124.08 47.3 L124.08 47.3 L123.78 47.3 L123.48 47.3 L123.48 43.4 L123.78 43.4 L124.08 43.4 Z" stroke="rgb(0, 0, 0)" stroke-width="0" fill-rule="evenodd" stroke-linejoin="miter" fill="rgb(0, 0, 0)" shape-rendering="geometricPrecision" /></g><g><text xml:space="preserve" text-anchor="start" text-rendering="geometricPrecision"><tspan x="120.18" y="41.65" font-family="Arial" font-size="10" fill="rgb(0, 0, 0)">Cl</tspan></text></g><g><text xml:space="preserve" text-anchor="start" text-rendering="geometricPrecision"><tspan x="145.13" y="60" font-family="Arial" font-size="10" fill="rgb(0, 0, 0)">O</tspan></text></g><g id="Solid"><line x1="134.99" y1="59.31" x2="143.78" y2="56.45" stroke="rgb(0, 0, 0)" stroke-width="0.6" shape-rendering="auto" /><path d="M135.36 61.59 L135.36 61.59 L135.13 62.3 L144.67 59.19 L144.49 58.62 Z" stroke="rgb(0, 0, 0)" stroke-width="0" fill-rule="evenodd" stroke-linejoin="miter" fill="rgb(0, 0, 0)" shape-rendering="geometricPrecision" /><path d="M134.15 59.27 L134.15 59.27 L134.75 59.71 L143.87 56.74 L143.69 56.17 Z" stroke="rgb(0, 0, 0)" stroke-width="0" fill-rule="evenodd" stroke-linejoin="miter" fill="rgb(0, 0, 0)" shape-rendering="geometricPrecision" /></g><g id="Solid"><line x1="111.77" y1="61.77" x2="103.12" y2="58.96" stroke="rgb(0, 0, 0)" stroke-width="0.6" shape-rendering="auto" /><path d="M112.81 59.7 L112.81 59.7 L113.41 59.27 L104.01 56.21 L103.83 56.78 Z" stroke="rgb(0, 0, 0)" stroke-width="0" fill-rule="evenodd" stroke-linejoin="miter" fill="rgb(0, 0, 0)" shape-rendering="geometricPrecision" /><path d="M112.42 62.3 L112.42 62.3 L112.2 61.59 L103.21 58.67 L103.03 59.24 Z" stroke="rgb(0, 0, 0)" stroke-width="0" fill-rule="evenodd" stroke-linejoin="miter" fill="rgb(0, 0, 0)" shape-rendering="geometricPrecision" /></g><g><text xml:space="preserve" text-anchor="start" text-rendering="geometricPrecision"><tspan x="94.62" y="60" font-family="Arial" font-size="10" fill="rgb(0, 0, 0)">O</tspan></text></g><g id="Solid"><path d="M182.03 50.24 L182.03 50.24 L181.88 49.98 L181.73 49.72 L189.96 44.97 L190.11 45.23 L190.26 45.49 Z" stroke="rgb(0, 0, 0)" stroke-width="0" fill-rule="evenodd" stroke-linejoin="miter" fill="rgb(0, 0, 0)" shape-rendering="geometricPrecision" /></g><g><text xml:space="preserve" text-anchor="start" text-rendering="geometricPrecision"><tspan x="190.99" y="46.71" font-family="Arial" font-size="10" fill="rgb(0, 0, 0)">S</tspan></text></g><g id="Solid"><path d="M198.44 45.54 L198.44 45.54 L198.59 45.28 L198.74 45.02 L206.89 49.72 L206.74 49.98 L206.59 50.24 Z" stroke="rgb(0, 0, 0)" stroke-width="0" fill-rule="evenodd" stroke-linejoin="miter" fill="rgb(0, 0, 0)" shape-rendering="geometricPrecision" /></g><g><text xml:space="preserve" text-anchor="start" text-rendering="geometricPrecision"><tspan x="291.35" y="57.04" font-family="Arial" font-size="10" fill="rgb(0, 0, 0)">+</tspan></text></g><g><text xml:space="preserve" text-anchor="end" text-rendering="geometricPrecision"><tspan x="247.08" y="67.73" font-family="Arial" font-size="10" fill="rgb(0, 0, 0)">R</tspan><tspan font-family="Arial" dy="2.26" font-size="7.5" fill="rgb(0, 0, 0)">2</tspan></text></g><g id="Solid"><path d="M256.73 56.31 L256.73 56.31 L256.73 56.66 L256.73 57.01 L247.92 62.09 L247.77 61.83 L247.62 61.57 Z" stroke="rgb(0, 0, 0)" stroke-width="0" fill-rule="evenodd" stroke-linejoin="miter" fill="rgb(0, 0, 0)" shape-rendering="geometricPrecision" /></g><g><text xml:space="preserve" text-anchor="start" text-rendering="geometricPrecision"><tspan x="265.56" y="67.73" font-family="Arial" font-size="10" fill="rgb(0, 0, 0)">R</tspan><tspan font-family="Arial" dy="2.26" font-size="7.5" fill="rgb(0, 0, 0)">1</tspan></text></g><g id="Solid"><path d="M256.73 57.01 L256.73 57.01 L256.73 56.66 L256.73 56.31 L265.16 61.18 L265.01 61.44 L264.86 61.7 Z" stroke="rgb(0, 0, 0)" stroke-width="0" fill-rule="evenodd" stroke-linejoin="miter" fill="rgb(0, 0, 0)" shape-rendering="geometricPrecision" /></g><g><text xml:space="preserve" text-anchor="start" text-rendering="geometricPrecision"><tspan x="252.83" y="46.21" font-family="Arial" font-size="10" fill="rgb(0, 0, 0)">O</tspan></text></g><g id="Solid"><line x1="255.44" y1="56.66" x2="255.44" y2="48" stroke="rgb(0, 0, 0)" stroke-width="0.6" shape-rendering="auto" /><path d="M257.72 56.89 L257.72 56.89 L258.32 57.23 L258.32 48 L257.72 48 Z" stroke="rgb(0, 0, 0)" stroke-width="0" fill-rule="evenodd" stroke-linejoin="miter" fill="rgb(0, 0, 0)" shape-rendering="geometricPrecision" /><path d="M255.14 57.23 L255.14 57.23 L255.74 56.89 L255.74 48 L255.14 48 Z" stroke="rgb(0, 0, 0)" stroke-width="0" fill-rule="evenodd" stroke-linejoin="miter" fill="rgb(0, 0, 0)" shape-rendering="geometricPrecision" /></g><g id="Solid"><path d="M352.02 57.59 L352.02 57.59 L352.37 57.48 L352.72 57.37 L348.16 71.42 L347.94 71.12 L347.72 70.82 Z" stroke="rgb(0, 0, 0)" stroke-width="0" fill-rule="evenodd" stroke-linejoin="miter" fill="rgb(0, 0, 0)" shape-rendering="geometricPrecision" /></g><g><text xml:space="preserve" text-anchor="start" text-rendering="geometricPrecision"><tspan x="337.16" y="44.6" font-family="Arial" font-size="10" fill="rgb(0, 0, 0)">H</tspan><tspan x="337.16" y="54.79" font-family="Arial" font-size="10" fill="rgb(0, 0, 0)">N</tspan></text></g><g id="Solid"><path d="M347.72 70.82 L347.72 70.82 L347.94 71.12 L348.16 71.42 L333.37 71.42 L333.59 71.12 L333.81 70.82 Z" stroke="rgb(0, 0, 0)" stroke-width="0" fill-rule="evenodd" stroke-linejoin="miter" fill="rgb(0, 0, 0)" shape-rendering="geometricPrecision" /></g><g id="Solid"><path d="M333.81 70.82 L333.81 70.82 L333.59 71.12 L333.37 71.42 L328.8 57.37 L329.15 57.48 L329.5 57.59 Z" stroke="rgb(0, 0, 0)" stroke-width="0" fill-rule="evenodd" stroke-linejoin="miter" fill="rgb(0, 0, 0)" shape-rendering="geometricPrecision" /></g><g id="Solid"><path d="M329.5 57.59 L329.5 57.59 L329.15 57.48 L328.8 57.37 L336.53 51.74 L336.71 51.99 L336.88 52.23 Z" stroke="rgb(0, 0, 0)" stroke-width="0" fill-rule="evenodd" stroke-linejoin="miter" fill="rgb(0, 0, 0)" shape-rendering="geometricPrecision" /></g><g id="Solid"><path d="M344.72 52.29 L344.72 52.29 L344.89 52.05 L345.07 51.8 L352.72 57.37 L352.37 57.48 L352.02 57.59 Z" stroke="rgb(0, 0, 0)" stroke-width="0" fill-rule="evenodd" stroke-linejoin="miter" fill="rgb(0, 0, 0)" shape-rendering="geometricPrecision" /></g><g id="Solid"><line x1="351.97" y1="56.25" x2="360.78" y2="53.39" stroke="rgb(0, 0, 0)" stroke-width="0.6" shape-rendering="auto" /><path d="M352.34 58.53 L352.34 58.53 L352.11 59.24 L361.67 56.13 L361.49 55.56 Z" stroke="rgb(0, 0, 0)" stroke-width="0" fill-rule="evenodd" stroke-linejoin="miter" fill="rgb(0, 0, 0)" shape-rendering="geometricPrecision" /><path d="M351.13 56.21 L351.13 56.21 L351.73 56.64 L360.87 53.67 L360.69 53.1 Z" stroke="rgb(0, 0, 0)" stroke-width="0" fill-rule="evenodd" stroke-linejoin="miter" fill="rgb(0, 0, 0)" shape-rendering="geometricPrecision" /></g><g><text xml:space="preserve" text-anchor="start" text-rendering="geometricPrecision"><tspan x="362.12" y="56.94" font-family="Arial" font-size="10" fill="rgb(0, 0, 0)">O</tspan></text></g><g><text xml:space="preserve" text-anchor="start" text-rendering="geometricPrecision"><tspan x="311.6" y="56.94" font-family="Arial" font-size="10" fill="rgb(0, 0, 0)">O</tspan></text></g><g id="Solid"><line x1="328.75" y1="58.71" x2="320.12" y2="55.9" stroke="rgb(0, 0, 0)" stroke-width="0.6" shape-rendering="auto" /><path d="M329.79 56.64 L329.79 56.64 L330.39 56.21 L321.01 53.16 L320.83 53.73 Z" stroke="rgb(0, 0, 0)" stroke-width="0" fill-rule="evenodd" stroke-linejoin="miter" fill="rgb(0, 0, 0)" shape-rendering="geometricPrecision" /><path d="M329.41 59.24 L329.41 59.24 L329.18 58.53 L320.21 55.62 L320.03 56.19 Z" stroke="rgb(0, 0, 0)" stroke-width="0" fill-rule="evenodd" stroke-linejoin="miter" fill="rgb(0, 0, 0)" shape-rendering="geometricPrecision" /></g><g><text xml:space="preserve" text-anchor="start" text-rendering="geometricPrecision"><tspan x="384.32" y="57.04" font-family="Arial" font-size="10" fill="rgb(0, 0, 0)">+</tspan></text></g><g><text xml:space="preserve" text-anchor="start" text-rendering="geometricPrecision"><tspan x="404.57" y="57.04" font-family="Arial" font-size="10" fill="rgb(0, 0, 0)">HCl</tspan></text></g></g></g></svg>