<?xml version="1.0"?><svg xmlns="http://www.w3.org/2000/svg" xmlns:xlink="http://www.w3.org/1999/xlink" viewBox="15.68 33.18 266.32 76.82" preserveAspectRatio="xMidYMid" width="100%" height="100%"><clipPath id="456"><rect x="0.3" y="0.3" width="539.4" height="719.15" /></clipPath><g id="drawing"><rect x="15.68" y="33.18" width="100%" height="100%" fill="rgb(255, 255, 255)" /><g id="page" clip-path="url(#456)"><g><text xml:space="preserve" text-anchor="start" text-rendering="geometricPrecision"><tspan x="17.95" y="107.45" font-family="Arial" font-size="10" fill="rgb(0, 0, 0)">R = Alkyl, Aryl, H</tspan></text></g><g><text xml:space="preserve" text-anchor="end" text-rendering="geometricPrecision"><tspan x="27.07" y="71.82" font-family="Arial" font-size="10" fill="rgb(0, 0, 0)">R</tspan><tspan font-family="Arial" dy="2.26" font-size="7.5" fill="rgb(0, 0, 0)">2</tspan></text></g><g><text xml:space="preserve" text-anchor="start" text-rendering="geometricPrecision"><tspan x="43.02" y="71.82" font-family="Arial" font-size="10" fill="rgb(0, 0, 0)">R</tspan><tspan font-family="Arial" dy="2.26" font-size="7.5" fill="rgb(0, 0, 0)">3</tspan></text></g><g id="Solid"><path d="M44.22 63.16 L44.22 63.16 L43.96 63.31 L43.7 63.46 L39.28 55.8 L39.45 55.5 L39.8 55.5 Z" stroke="rgb(0, 0, 0)" stroke-width="0" fill-rule="evenodd" stroke-linejoin="miter" fill="rgb(0, 0, 0)" shape-rendering="geometricPrecision" /></g><g id="Solid"><path d="M39.28 55.2 L39.28 55.2 L39.45 55.5 L39.28 55.8 L25.27 55.8 L25.1 55.5 L25.27 55.2 Z" stroke="rgb(0, 0, 0)" stroke-width="0" fill-rule="evenodd" stroke-linejoin="miter" fill="rgb(0, 0, 0)" shape-rendering="geometricPrecision" /></g><g id="Solid"><path d="M24.75 55.5 L24.75 55.5 L25.1 55.5 L25.27 55.8 L20.84 63.46 L20.58 63.31 L20.32 63.16 Z" stroke="rgb(0, 0, 0)" stroke-width="0" fill-rule="evenodd" stroke-linejoin="miter" fill="rgb(0, 0, 0)" shape-rendering="geometricPrecision" /></g><g><text xml:space="preserve" text-anchor="end" text-rendering="geometricPrecision"><tspan x="27.07" y="46.97" font-family="Arial" font-size="10" fill="rgb(0, 0, 0)">R</tspan><tspan font-family="Arial" dy="2.26" font-size="7.5" fill="rgb(0, 0, 0)">1</tspan></text></g><g id="Solid"><path d="M25.27 55.2 L25.27 55.2 L25.1 55.5 L24.75 55.5 L21.77 50.34 L22.03 50.19 L22.29 50.04 Z" stroke="rgb(0, 0, 0)" stroke-width="0" fill-rule="evenodd" stroke-linejoin="miter" fill="rgb(0, 0, 0)" shape-rendering="geometricPrecision" /></g><g id="Solid"><path d="M39.8 55.5 L39.8 55.5 L39.45 55.5 L39.28 55.2 L43.47 47.94 L43.73 48.09 L43.99 48.24 Z" stroke="rgb(0, 0, 0)" stroke-width="0" fill-rule="evenodd" stroke-linejoin="miter" fill="rgb(0, 0, 0)" shape-rendering="geometricPrecision" /></g><g><text xml:space="preserve" text-anchor="start" text-rendering="geometricPrecision"><tspan x="42.72" y="46.97" font-family="Arial" font-size="10" fill="rgb(0, 0, 0)">OH</tspan></text></g><g id="Arrow"><line x1="151.35" y1="56.32" x2="126.8" y2="56.32" stroke="rgb(0, 0, 0)" stroke-width="0.6" shape-rendering="auto" /><path d="M155.6 56.32 L149.6 54.82 C150.79 55.66 150.79 56.98 149.6 57.82 Z" stroke="rgb(0, 0, 0)" stroke-width="0" fill-rule="evenodd" stroke-linejoin="miter" stroke-miterlimit="6.93525005514877" fill="rgb(0, 0, 0)" shape-rendering="geometricPrecision" /></g><g><text xml:space="preserve" text-anchor="end" text-rendering="geometricPrecision"><tspan x="181.39" y="71.82" font-family="Arial" font-size="10" fill="rgb(0, 0, 0)">R</tspan><tspan font-family="Arial" dy="2.26" font-size="7.5" fill="rgb(0, 0, 0)">2</tspan></text></g><g><text xml:space="preserve" text-anchor="start" text-rendering="geometricPrecision"><tspan x="197.34" y="71.82" font-family="Arial" font-size="10" fill="rgb(0, 0, 0)">R</tspan><tspan font-family="Arial" dy="2.26" font-size="7.5" fill="rgb(0, 0, 0)">3</tspan></text></g><g id="Solid"><path d="M198.54 63.16 L198.54 63.16 L198.28 63.31 L198.02 63.46 L193.6 55.8 L193.77 55.5 L194.12 55.5 Z" stroke="rgb(0, 0, 0)" stroke-width="0" fill-rule="evenodd" stroke-linejoin="miter" fill="rgb(0, 0, 0)" shape-rendering="geometricPrecision" /></g><g id="Solid"><path d="M193.6 55.2 L193.6 55.2 L193.77 55.5 L193.6 55.8 L179.59 55.8 L179.42 55.5 L179.59 55.2 Z" stroke="rgb(0, 0, 0)" stroke-width="0" fill-rule="evenodd" stroke-linejoin="miter" fill="rgb(0, 0, 0)" shape-rendering="geometricPrecision" /></g><g id="Solid"><path d="M179.07 55.5 L179.07 55.5 L179.42 55.5 L179.59 55.8 L175.16 63.46 L174.9 63.31 L174.64 63.16 Z" stroke="rgb(0, 0, 0)" stroke-width="0" fill-rule="evenodd" stroke-linejoin="miter" fill="rgb(0, 0, 0)" shape-rendering="geometricPrecision" /></g><g><text xml:space="preserve" text-anchor="end" text-rendering="geometricPrecision"><tspan x="181.39" y="46.97" font-family="Arial" font-size="10" fill="rgb(0, 0, 0)">R</tspan><tspan font-family="Arial" dy="2.26" font-size="7.5" fill="rgb(0, 0, 0)">1</tspan></text></g><g id="Solid"><path d="M179.59 55.2 L179.59 55.2 L179.42 55.5 L179.07 55.5 L176.09 50.34 L176.35 50.19 L176.61 50.04 Z" stroke="rgb(0, 0, 0)" stroke-width="0" fill-rule="evenodd" stroke-linejoin="miter" fill="rgb(0, 0, 0)" shape-rendering="geometricPrecision" /></g><g id="Solid"><path d="M194.12 55.5 L194.12 55.5 L193.77 55.5 L193.6 55.2 L197.79 47.94 L198.05 48.09 L198.31 48.24 Z" stroke="rgb(0, 0, 0)" stroke-width="0" fill-rule="evenodd" stroke-linejoin="miter" fill="rgb(0, 0, 0)" shape-rendering="geometricPrecision" /></g><g><text xml:space="preserve" text-anchor="start" text-rendering="geometricPrecision"><tspan x="197.04" y="46.97" font-family="Arial" font-size="10" fill="rgb(0, 0, 0)">O</tspan></text></g><g><text xml:space="preserve" text-anchor="start" text-rendering="geometricPrecision"><tspan x="249.97" y="59.52" font-family="Arial" font-size="10" fill="rgb(0, 0, 0)">+</tspan></text></g><g><text xml:space="preserve" text-anchor="start" text-rendering="geometricPrecision"><tspan x="270.22" y="59.52" font-family="Arial" font-size="10" fill="rgb(0, 0, 0)">H</tspan><tspan font-family="Arial" dy="2.26" font-size="7.5" fill="rgb(0, 0, 0)">2</tspan></text></g><g><text xml:space="preserve" text-anchor="start" text-rendering="geometricPrecision"><tspan x="72.15" y="59.52" font-family="Arial" font-size="10" fill="rgb(0, 0, 0)">+</tspan></text></g><g><text xml:space="preserve" text-anchor="start" text-rendering="geometricPrecision"><tspan x="92.4" y="59.52" font-family="Arial" font-size="10" fill="rgb(0, 0, 0)">NaH</tspan></text></g><g id="Charge444"><circle cx="208.89" cy="37.11" r="3.33333333333333" stroke="rgb(0, 0, 0)" stroke-width="0.48" fill="none" /><line x1="206.92" y1="37.11" x2="210.86" y2="37.11" stroke="rgb(0, 0, 0)" stroke-width="0.48" shape-rendering="auto" /></g><g><text xml:space="preserve" text-anchor="start" text-rendering="geometricPrecision"><tspan x="216.75" y="47.75" font-family="Arial" font-size="10" fill="rgb(0, 0, 0)">Na</tspan></text></g><g id="Charge448"><circle cx="232.77" cy="38.72" r="3.33333333333333" stroke="rgb(0, 0, 0)" stroke-width="0.48" fill="none" /><line x1="230.8" y1="38.72" x2="234.74" y2="38.72" stroke="rgb(0, 0, 0)" stroke-width="0.48" shape-rendering="auto" /><line x1="232.77" y1="36.75" x2="232.77" y2="40.69" stroke="rgb(0, 0, 0)" stroke-width="0.48" shape-rendering="auto" /></g></g></g></svg>