<?xml version="1.0"?><svg xmlns="http://www.w3.org/2000/svg" xmlns:xlink="http://www.w3.org/1999/xlink" viewBox="17.95 13.27 431.98 103.48" preserveAspectRatio="xMidYMid" width="100%" height="100%"><clipPath id="623"><rect x="0.3" y="0.3" width="539.4" height="719.15" /></clipPath><g id="drawing"><rect x="17.95" y="13.27" width="100%" height="100%" fill="rgb(255, 255, 255)" /><g id="page" clip-path="url(#623)"><g><text xml:space="preserve" text-anchor="start" text-rendering="geometricPrecision"><tspan x="17.95" y="114.2" font-family="Arial" font-size="10" fill="rgb(0, 0, 0)">R = Alkyl, Aryl, H</tspan></text></g><g><text xml:space="preserve" text-anchor="end" text-rendering="geometricPrecision"><tspan x="29.53" y="67.11" font-family="Arial" font-size="10" fill="rgb(0, 0, 0)">R</tspan><tspan font-family="Arial" dy="2.26" font-size="7.5" fill="rgb(0, 0, 0)">1</tspan></text></g><g id="Solid"><path d="M30.36 61.47 L30.36 61.47 L30.21 61.21 L30.06 60.95 L38.92 55.84 L39.22 56.01 L39.22 56.36 Z" stroke="rgb(0, 0, 0)" stroke-width="0" fill-rule="evenodd" stroke-linejoin="miter" fill="rgb(0, 0, 0)" shape-rendering="geometricPrecision" /></g><g id="Solid"><path d="M39.52 55.84 L39.52 55.84 L39.22 56.01 L38.92 55.84 L38.92 47.3 L39.22 47.3 L39.52 47.3 Z" stroke="rgb(0, 0, 0)" stroke-width="0" fill-rule="evenodd" stroke-linejoin="miter" fill="rgb(0, 0, 0)" shape-rendering="geometricPrecision" /></g><g><text xml:space="preserve" text-anchor="start" text-rendering="geometricPrecision"><tspan x="35.32" y="45.51" font-family="Arial" font-size="10" fill="rgb(0, 0, 0)">OH</tspan></text></g><g id="Solid"><path d="M39.22 56.36 L39.22 56.36 L39.22 56.01 L39.52 55.84 L47.66 60.54 L47.51 60.8 L47.36 61.05 Z" stroke="rgb(0, 0, 0)" stroke-width="0" fill-rule="evenodd" stroke-linejoin="miter" fill="rgb(0, 0, 0)" shape-rendering="geometricPrecision" /></g><g><text xml:space="preserve" text-anchor="start" text-rendering="geometricPrecision"><tspan x="48.1" y="67.11" font-family="Arial" font-size="10" fill="rgb(0, 0, 0)">R</tspan><tspan font-family="Arial" dy="2.26" font-size="7.5" fill="rgb(0, 0, 0)">2</tspan></text></g><g id="Solid"><path d="M145.09 56.77 L145.09 56.77 L145.39 56.55 L145.69 56.72 L145.69 70.78 L145.39 70.95 L145.09 70.73 Z" stroke="rgb(0, 0, 0)" stroke-width="0" fill-rule="evenodd" stroke-linejoin="miter" fill="rgb(0, 0, 0)" shape-rendering="geometricPrecision" /><line x1="147.98" y1="58.05" x2="147.98" y2="69.45" stroke="rgb(0, 0, 0)" stroke-width="0.6" shape-rendering="auto" /></g><g id="Solid"><path d="M145.36 71.28 L145.36 71.28 L145.39 70.95 L145.69 70.78 L157.86 77.8 L157.86 78.15 L157.86 78.5 Z" stroke="rgb(0, 0, 0)" stroke-width="0" fill-rule="evenodd" stroke-linejoin="miter" fill="rgb(0, 0, 0)" shape-rendering="geometricPrecision" /></g><g id="Solid"><path d="M157.86 78.5 L157.86 78.5 L157.86 78.15 L157.86 77.8 L170.03 70.78 L170.33 70.95 L170.63 71.12 Z" stroke="rgb(0, 0, 0)" stroke-width="0" fill-rule="evenodd" stroke-linejoin="miter" fill="rgb(0, 0, 0)" shape-rendering="geometricPrecision" /><line x1="157.86" y1="75.16" x2="167.74" y2="69.45" stroke="rgb(0, 0, 0)" stroke-width="0.6" shape-rendering="auto" /></g><g id="Solid"><path d="M170.63 71.12 L170.63 71.12 L170.33 70.95 L170.03 70.78 L170.03 56.72 L170.33 56.55 L170.63 56.38 Z" stroke="rgb(0, 0, 0)" stroke-width="0" fill-rule="evenodd" stroke-linejoin="miter" fill="rgb(0, 0, 0)" shape-rendering="geometricPrecision" /></g><g id="Solid"><path d="M170.63 56.38 L170.63 56.38 L170.33 56.55 L170.03 56.72 L157.86 49.7 L157.86 49.35 L157.86 49 Z" stroke="rgb(0, 0, 0)" stroke-width="0" fill-rule="evenodd" stroke-linejoin="miter" fill="rgb(0, 0, 0)" shape-rendering="geometricPrecision" /><line x1="167.74" y1="58.05" x2="157.86" y2="52.34" stroke="rgb(0, 0, 0)" stroke-width="0.6" shape-rendering="auto" /></g><g id="Solid"><path d="M157.86 49 L157.86 49 L157.86 49.35 L157.86 49.7 L145.69 56.72 L145.39 56.55 L145.36 56.22 Z" stroke="rgb(0, 0, 0)" stroke-width="0" fill-rule="evenodd" stroke-linejoin="miter" fill="rgb(0, 0, 0)" shape-rendering="geometricPrecision" /></g><g><text xml:space="preserve" text-anchor="start" text-rendering="geometricPrecision"><tspan x="130.29" y="56" font-family="Arial" font-size="10" fill="rgb(0, 0, 0)">I</tspan></text></g><g><text xml:space="preserve" text-anchor="start" text-rendering="geometricPrecision"><tspan x="119.33" y="67.65" font-family="Arial" font-size="10" fill="rgb(0, 0, 0)">O</tspan></text></g><g id="Solid"><path d="M145.36 56.22 L145.36 56.22 L145.39 56.55 L145.09 56.77 L133.63 53.05 L133.72 52.76 L133.81 52.47 Z" stroke="rgb(0, 0, 0)" stroke-width="0" fill-rule="evenodd" stroke-linejoin="miter" fill="rgb(0, 0, 0)" shape-rendering="geometricPrecision" /></g><g id="Solid"><path d="M130.12 53.76 L130.12 53.76 L130.36 53.93 L130.6 54.11 L126.48 59.78 L126.24 59.61 L126 59.43 Z" stroke="rgb(0, 0, 0)" stroke-width="0" fill-rule="evenodd" stroke-linejoin="miter" fill="rgb(0, 0, 0)" shape-rendering="geometricPrecision" /></g><g id="Solid"><path d="M126.43 68.67 L126.43 68.67 L126.68 68.49 L126.92 68.32 L131.8 75.05 L131.69 75.4 L131.58 75.75 Z" stroke="rgb(0, 0, 0)" stroke-width="0" fill-rule="evenodd" stroke-linejoin="miter" fill="rgb(0, 0, 0)" shape-rendering="geometricPrecision" /></g><g id="Solid"><path d="M131.58 75.75 L131.58 75.75 L131.69 75.4 L131.8 75.05 L145.09 70.73 L145.39 70.95 L145.36 71.28 Z" stroke="rgb(0, 0, 0)" stroke-width="0" fill-rule="evenodd" stroke-linejoin="miter" fill="rgb(0, 0, 0)" shape-rendering="geometricPrecision" /></g><g id="Solid"><line x1="132.92" y1="75.8" x2="130.04" y2="84.68" stroke="rgb(0, 0, 0)" stroke-width="0.6" shape-rendering="auto" /><path d="M130.85 74.76 L130.85 74.76 L130.42 74.16 L127.29 83.79 L127.86 83.97 Z" stroke="rgb(0, 0, 0)" stroke-width="0" fill-rule="evenodd" stroke-linejoin="miter" fill="rgb(0, 0, 0)" shape-rendering="geometricPrecision" /><path d="M133.45 75.14 L133.45 75.14 L132.75 75.37 L129.75 84.59 L130.32 84.77 Z" stroke="rgb(0, 0, 0)" stroke-width="0" fill-rule="evenodd" stroke-linejoin="miter" fill="rgb(0, 0, 0)" shape-rendering="geometricPrecision" /></g><g><text xml:space="preserve" text-anchor="start" text-rendering="geometricPrecision"><tspan x="123.34" y="93" font-family="Arial" font-size="10" fill="rgb(0, 0, 0)">O</tspan></text></g><g id="Solid"><path d="M131.09 49.28 L131.09 49.28 L130.81 49.38 L130.52 49.47 L128.75 44.01 L129.03 43.92 L129.32 43.83 Z" stroke="rgb(0, 0, 0)" stroke-width="0" fill-rule="evenodd" stroke-linejoin="miter" fill="rgb(0, 0, 0)" shape-rendering="geometricPrecision" /></g><g><text xml:space="preserve" text-anchor="start" text-rendering="geometricPrecision"><tspan x="123.34" y="42.3" font-family="Arial" font-size="10" fill="rgb(0, 0, 0)">O</tspan></text></g><g id="Solid"><path d="M133.54 50.67 L133.54 50.67 L133.33 50.46 L133.12 50.25 L137.76 45.62 L137.97 45.83 L138.18 46.04 Z" stroke="rgb(0, 0, 0)" stroke-width="0" fill-rule="evenodd" stroke-linejoin="miter" fill="rgb(0, 0, 0)" shape-rendering="geometricPrecision" /></g><g><text xml:space="preserve" text-anchor="start" text-rendering="geometricPrecision"><tspan x="137.98" y="45.82" font-family="Arial" font-size="10" fill="rgb(0, 0, 0)">O</tspan></text></g><g><text xml:space="preserve" text-anchor="start" text-rendering="geometricPrecision"><tspan x="113.57" y="53.75" font-family="Arial" font-size="10" fill="rgb(0, 0, 0)">O</tspan></text></g><g id="Solid"><path d="M129.77 51.49 L129.77 51.49 L129.72 51.79 L129.67 52.08 L122.43 50.94 L122.48 50.64 L122.53 50.35 Z" stroke="rgb(0, 0, 0)" stroke-width="0" fill-rule="evenodd" stroke-linejoin="miter" fill="rgb(0, 0, 0)" shape-rendering="geometricPrecision" /></g><g id="Solid"><path d="M140.87 36.98 L140.87 36.98 L140.58 37.05 L140.29 37.13 L137.91 28.25 L138.15 28.01 L138.39 27.77 Z" stroke="rgb(0, 0, 0)" stroke-width="0" fill-rule="evenodd" stroke-linejoin="miter" fill="rgb(0, 0, 0)" shape-rendering="geometricPrecision" /></g><g id="Solid"><path d="M138.39 27.77 L138.39 27.77 L138.15 28.01 L137.91 28.25 L124.16 24.57 L124.24 24.28 L124.32 23.99 Z" stroke="rgb(0, 0, 0)" stroke-width="0" fill-rule="evenodd" stroke-linejoin="miter" fill="rgb(0, 0, 0)" shape-rendering="geometricPrecision" /></g><g id="Solid"><line x1="137.23" y1="27.09" x2="142.95" y2="21.38" stroke="rgb(0, 0, 0)" stroke-width="0.6" shape-rendering="auto" /><path d="M138.69 28.88 L138.69 28.88 L138.87 29.54 L145 23.42 L144.57 23 Z" stroke="rgb(0, 0, 0)" stroke-width="0" fill-rule="evenodd" stroke-linejoin="miter" fill="rgb(0, 0, 0)" shape-rendering="geometricPrecision" /><path d="M136.62 27.29 L136.62 27.29 L137.28 27.47 L143.16 21.59 L142.74 21.16 Z" stroke="rgb(0, 0, 0)" stroke-width="0" fill-rule="evenodd" stroke-linejoin="miter" fill="rgb(0, 0, 0)" shape-rendering="geometricPrecision" /></g><g><text xml:space="preserve" text-anchor="start" text-rendering="geometricPrecision"><tspan x="144.43" y="21.73" font-family="Arial" font-size="10" fill="rgb(0, 0, 0)">O</tspan></text></g><g id="Solid"><path d="M122.5 37.09 L122.5 37.09 L122.43 37.38 L122.37 37.67 L113.27 35.74 L113.16 35.41 L113.05 35.08 Z" stroke="rgb(0, 0, 0)" stroke-width="0" fill-rule="evenodd" stroke-linejoin="miter" fill="rgb(0, 0, 0)" shape-rendering="geometricPrecision" /></g><g id="Solid"><path d="M113.66 54.08 L113.66 54.08 L113.89 54.27 L114.13 54.46 L108.53 61.36 L108.41 61.04 L108.29 60.72 Z" stroke="rgb(0, 0, 0)" stroke-width="0" fill-rule="evenodd" stroke-linejoin="miter" fill="rgb(0, 0, 0)" shape-rendering="geometricPrecision" /></g><g id="Solid"><path d="M108.29 60.72 L108.29 60.72 L108.41 61.04 L108.53 61.36 L94.14 59.09 L94.19 58.79 L94.24 58.49 Z" stroke="rgb(0, 0, 0)" stroke-width="0" fill-rule="evenodd" stroke-linejoin="miter" fill="rgb(0, 0, 0)" shape-rendering="geometricPrecision" /></g><g><text xml:space="preserve" text-anchor="start" text-rendering="geometricPrecision"><tspan x="109.67" y="78.38" font-family="Arial" font-size="10" fill="rgb(0, 0, 0)">O</tspan></text></g><g id="Solid"><line x1="109.62" y1="60.58" x2="112.95" y2="69.24" stroke="rgb(0, 0, 0)" stroke-width="0.6" shape-rendering="auto" /><path d="M107.4 61.18 L107.4 61.18 L106.71 61.08 L110.25 70.28 L110.81 70.06 Z" stroke="rgb(0, 0, 0)" stroke-width="0" fill-rule="evenodd" stroke-linejoin="miter" fill="rgb(0, 0, 0)" shape-rendering="geometricPrecision" /><path d="M109.69 59.93 L109.69 59.93 L109.26 60.47 L112.67 69.35 L113.23 69.13 Z" stroke="rgb(0, 0, 0)" stroke-width="0" fill-rule="evenodd" stroke-linejoin="miter" fill="rgb(0, 0, 0)" shape-rendering="geometricPrecision" /></g><g id="Solid"><line x1="111.93" y1="35.81" x2="109.3" y2="27.72" stroke="rgb(0, 0, 0)" stroke-width="0.6" shape-rendering="auto" /><path d="M114.18 35.32 L114.18 35.32 L114.86 35.46 L112.05 26.83 L111.48 27.01 Z" stroke="rgb(0, 0, 0)" stroke-width="0" fill-rule="evenodd" stroke-linejoin="miter" fill="rgb(0, 0, 0)" shape-rendering="geometricPrecision" /><path d="M111.82 36.45 L111.82 36.45 L112.28 35.93 L109.58 27.63 L109.01 27.81 Z" stroke="rgb(0, 0, 0)" stroke-width="0" fill-rule="evenodd" stroke-linejoin="miter" fill="rgb(0, 0, 0)" shape-rendering="geometricPrecision" /></g><g><text xml:space="preserve" text-anchor="start" text-rendering="geometricPrecision"><tspan x="104.81" y="25.62" font-family="Arial" font-size="10" fill="rgb(0, 0, 0)">O</tspan></text></g><g id="Solid"><path d="M113.05 35.08 L113.05 35.08 L113.16 35.41 L113.27 35.74 L103.74 46.31 L103.52 46.11 L103.3 45.91 Z" stroke="rgb(0, 0, 0)" stroke-width="0" fill-rule="evenodd" stroke-linejoin="miter" fill="rgb(0, 0, 0)" shape-rendering="geometricPrecision" /></g><g id="Arrow"><line x1="209.58" y1="53.18" x2="185.03" y2="53.18" stroke="rgb(0, 0, 0)" stroke-width="0.6" shape-rendering="auto" /><path d="M213.83 53.18 L207.83 51.68 C209.02 52.52 209.02 53.84 207.83 54.68 Z" stroke="rgb(0, 0, 0)" stroke-width="0" fill-rule="evenodd" stroke-linejoin="miter" stroke-miterlimit="6.93525005514877" fill="rgb(0, 0, 0)" shape-rendering="geometricPrecision" /></g><g><text xml:space="preserve" text-anchor="start" text-rendering="geometricPrecision"><tspan x="73.89" y="56.38" font-family="Arial" font-size="10" fill="rgb(0, 0, 0)">+</tspan></text></g><g><text xml:space="preserve" text-anchor="end" text-rendering="geometricPrecision"><tspan x="239.62" y="67.11" font-family="Arial" font-size="10" fill="rgb(0, 0, 0)">R</tspan><tspan font-family="Arial" dy="2.26" font-size="7.5" fill="rgb(0, 0, 0)">1</tspan></text></g><g id="Solid"><path d="M240.46 61.47 L240.46 61.47 L240.31 61.21 L240.16 60.95 L249.32 55.66 L249.32 56.01 L249.32 56.36 Z" stroke="rgb(0, 0, 0)" stroke-width="0" fill-rule="evenodd" stroke-linejoin="miter" fill="rgb(0, 0, 0)" shape-rendering="geometricPrecision" /></g><g id="Solid"><line x1="248.02" y1="56.01" x2="248.02" y2="47.3" stroke="rgb(0, 0, 0)" stroke-width="0.6" shape-rendering="auto" /><path d="M250.32 56.24 L250.32 56.24 L250.92 56.59 L250.92 47.3 L250.32 47.3 Z" stroke="rgb(0, 0, 0)" stroke-width="0" fill-rule="evenodd" stroke-linejoin="miter" fill="rgb(0, 0, 0)" shape-rendering="geometricPrecision" /><path d="M247.72 56.59 L247.72 56.59 L248.32 56.24 L248.32 47.3 L247.72 47.3 Z" stroke="rgb(0, 0, 0)" stroke-width="0" fill-rule="evenodd" stroke-linejoin="miter" fill="rgb(0, 0, 0)" shape-rendering="geometricPrecision" /></g><g><text xml:space="preserve" text-anchor="start" text-rendering="geometricPrecision"><tspan x="245.42" y="45.51" font-family="Arial" font-size="10" fill="rgb(0, 0, 0)">O</tspan></text></g><g><text xml:space="preserve" text-anchor="start" text-rendering="geometricPrecision"><tspan x="258.19" y="67.11" font-family="Arial" font-size="10" fill="rgb(0, 0, 0)">R</tspan><tspan font-family="Arial" dy="2.26" font-size="7.5" fill="rgb(0, 0, 0)">2</tspan></text></g><g id="Solid"><path d="M249.32 56.36 L249.32 56.36 L249.32 56.01 L249.32 55.66 L257.76 60.54 L257.61 60.8 L257.46 61.06 Z" stroke="rgb(0, 0, 0)" stroke-width="0" fill-rule="evenodd" stroke-linejoin="miter" fill="rgb(0, 0, 0)" shape-rendering="geometricPrecision" /></g><g id="Solid"><path d="M346.02 54.83 L346.02 54.83 L346.32 54.61 L346.62 54.78 L346.62 68.84 L346.32 69.01 L346.02 68.79 Z" stroke="rgb(0, 0, 0)" stroke-width="0" fill-rule="evenodd" stroke-linejoin="miter" fill="rgb(0, 0, 0)" shape-rendering="geometricPrecision" /><line x1="348.91" y1="56.11" x2="348.91" y2="67.51" stroke="rgb(0, 0, 0)" stroke-width="0.6" shape-rendering="auto" /></g><g id="Solid"><path d="M346.29 69.34 L346.29 69.34 L346.32 69.01 L346.62 68.84 L358.79 75.86 L358.79 76.21 L358.79 76.56 Z" stroke="rgb(0, 0, 0)" stroke-width="0" fill-rule="evenodd" stroke-linejoin="miter" fill="rgb(0, 0, 0)" shape-rendering="geometricPrecision" /></g><g id="Solid"><path d="M358.79 76.56 L358.79 76.56 L358.79 76.21 L358.79 75.86 L370.96 68.84 L371.26 69.01 L371.56 69.18 Z" stroke="rgb(0, 0, 0)" stroke-width="0" fill-rule="evenodd" stroke-linejoin="miter" fill="rgb(0, 0, 0)" shape-rendering="geometricPrecision" /><line x1="358.79" y1="73.22" x2="368.67" y2="67.51" stroke="rgb(0, 0, 0)" stroke-width="0.6" shape-rendering="auto" /></g><g id="Solid"><path d="M371.56 69.18 L371.56 69.18 L371.26 69.01 L370.96 68.84 L370.96 54.78 L371.26 54.61 L371.56 54.44 Z" stroke="rgb(0, 0, 0)" stroke-width="0" fill-rule="evenodd" stroke-linejoin="miter" fill="rgb(0, 0, 0)" shape-rendering="geometricPrecision" /></g><g id="Solid"><path d="M371.56 54.44 L371.56 54.44 L371.26 54.61 L370.96 54.78 L358.79 47.76 L358.79 47.41 L358.79 47.06 Z" stroke="rgb(0, 0, 0)" stroke-width="0" fill-rule="evenodd" stroke-linejoin="miter" fill="rgb(0, 0, 0)" shape-rendering="geometricPrecision" /><line x1="368.67" y1="56.11" x2="358.79" y2="50.4" stroke="rgb(0, 0, 0)" stroke-width="0.6" shape-rendering="auto" /></g><g id="Solid"><path d="M358.79 47.06 L358.79 47.06 L358.79 47.41 L358.79 47.76 L346.62 54.78 L346.32 54.61 L346.29 54.28 Z" stroke="rgb(0, 0, 0)" stroke-width="0" fill-rule="evenodd" stroke-linejoin="miter" fill="rgb(0, 0, 0)" shape-rendering="geometricPrecision" /></g><g><text xml:space="preserve" text-anchor="start" text-rendering="geometricPrecision"><tspan x="331.23" y="54.06" font-family="Arial" font-size="10" fill="rgb(0, 0, 0)">I</tspan></text></g><g><text xml:space="preserve" text-anchor="start" text-rendering="geometricPrecision"><tspan x="320.26" y="65.71" font-family="Arial" font-size="10" fill="rgb(0, 0, 0)">O</tspan></text></g><g id="Solid"><path d="M346.29 54.28 L346.29 54.28 L346.32 54.61 L346.02 54.83 L334.63 51.13 L334.72 50.84 L334.81 50.55 Z" stroke="rgb(0, 0, 0)" stroke-width="0" fill-rule="evenodd" stroke-linejoin="miter" fill="rgb(0, 0, 0)" shape-rendering="geometricPrecision" /></g><g id="Solid"><path d="M331.02 51.87 L331.02 51.87 L331.26 52.05 L331.5 52.22 L327.39 57.88 L327.14 57.71 L326.9 57.53 Z" stroke="rgb(0, 0, 0)" stroke-width="0" fill-rule="evenodd" stroke-linejoin="miter" fill="rgb(0, 0, 0)" shape-rendering="geometricPrecision" /></g><g id="Solid"><path d="M327.32 66.67 L327.32 66.67 L327.57 66.49 L327.81 66.32 L332.74 73.11 L332.63 73.46 L332.52 73.81 Z" stroke="rgb(0, 0, 0)" stroke-width="0" fill-rule="evenodd" stroke-linejoin="miter" fill="rgb(0, 0, 0)" shape-rendering="geometricPrecision" /></g><g id="Solid"><path d="M332.52 73.81 L332.52 73.81 L332.63 73.46 L332.74 73.11 L346.02 68.79 L346.32 69.01 L346.29 69.34 Z" stroke="rgb(0, 0, 0)" stroke-width="0" fill-rule="evenodd" stroke-linejoin="miter" fill="rgb(0, 0, 0)" shape-rendering="geometricPrecision" /></g><g id="Solid"><line x1="333.86" y1="73.86" x2="331" y2="82.68" stroke="rgb(0, 0, 0)" stroke-width="0.6" shape-rendering="auto" /><path d="M331.79 72.82 L331.79 72.82 L331.36 72.22 L328.25 81.79 L328.82 81.97 Z" stroke="rgb(0, 0, 0)" stroke-width="0" fill-rule="evenodd" stroke-linejoin="miter" fill="rgb(0, 0, 0)" shape-rendering="geometricPrecision" /><path d="M334.39 73.2 L334.39 73.2 L333.69 73.43 L330.71 82.59 L331.28 82.77 Z" stroke="rgb(0, 0, 0)" stroke-width="0" fill-rule="evenodd" stroke-linejoin="miter" fill="rgb(0, 0, 0)" shape-rendering="geometricPrecision" /></g><g><text xml:space="preserve" text-anchor="start" text-rendering="geometricPrecision"><tspan x="324.28" y="91.05" font-family="Arial" font-size="10" fill="rgb(0, 0, 0)">O</tspan></text></g><g id="Solid"><path d="M331.99 47.22 L331.99 47.22 L331.71 47.31 L331.42 47.41 L329.67 42.01 L329.95 41.92 L330.24 41.83 Z" stroke="rgb(0, 0, 0)" stroke-width="0" fill-rule="evenodd" stroke-linejoin="miter" fill="rgb(0, 0, 0)" shape-rendering="geometricPrecision" /></g><g><text xml:space="preserve" text-anchor="start" text-rendering="geometricPrecision"><tspan x="324.28" y="40.36" font-family="Arial" font-size="10" fill="rgb(0, 0, 0)">O</tspan></text></g><g id="Solid"><path d="M323.4 35.14 L323.4 35.14 L323.33 35.43 L323.27 35.73 L314.2 33.8 L314.09 33.47 L313.98 33.14 Z" stroke="rgb(0, 0, 0)" stroke-width="0" fill-rule="evenodd" stroke-linejoin="miter" fill="rgb(0, 0, 0)" shape-rendering="geometricPrecision" /></g><g id="Solid"><line x1="312.86" y1="33.87" x2="310.21" y2="25.72" stroke="rgb(0, 0, 0)" stroke-width="0.6" shape-rendering="auto" /><path d="M315.11 33.38 L315.11 33.38 L315.79 33.52 L312.96 24.83 L312.39 25.01 Z" stroke="rgb(0, 0, 0)" stroke-width="0" fill-rule="evenodd" stroke-linejoin="miter" fill="rgb(0, 0, 0)" shape-rendering="geometricPrecision" /><path d="M312.75 34.51 L312.75 34.51 L313.21 34 L310.5 25.63 L309.92 25.81 Z" stroke="rgb(0, 0, 0)" stroke-width="0" fill-rule="evenodd" stroke-linejoin="miter" fill="rgb(0, 0, 0)" shape-rendering="geometricPrecision" /></g><g><text xml:space="preserve" text-anchor="start" text-rendering="geometricPrecision"><tspan x="305.74" y="23.67" font-family="Arial" font-size="10" fill="rgb(0, 0, 0)">O</tspan></text></g><g id="Solid"><path d="M313.98 33.14 L313.98 33.14 L314.09 33.47 L314.2 33.8 L304.67 44.37 L304.45 44.17 L304.23 43.97 Z" stroke="rgb(0, 0, 0)" stroke-width="0" fill-rule="evenodd" stroke-linejoin="miter" fill="rgb(0, 0, 0)" shape-rendering="geometricPrecision" /></g><g><text xml:space="preserve" text-anchor="start" text-rendering="geometricPrecision"><tspan x="283.98" y="56.38" font-family="Arial" font-size="10" fill="rgb(0, 0, 0)">+</tspan></text></g><g><text xml:space="preserve" text-anchor="start" text-rendering="geometricPrecision"><tspan x="385.96" y="56.38" font-family="Arial" font-size="10" fill="rgb(0, 0, 0)">+</tspan></text></g><g><text xml:space="preserve" text-anchor="end" text-rendering="geometricPrecision"><tspan x="428.73" y="68.16" font-family="Arial" font-size="10" fill="rgb(0, 0, 0)">HO</tspan></text></g><g id="Solid"><path d="M429.54 61.89 L429.54 61.89 L429.39 61.63 L429.24 61.37 L437.3 56.71 L437.3 57.06 L437.3 57.41 Z" stroke="rgb(0, 0, 0)" stroke-width="0" fill-rule="evenodd" stroke-linejoin="miter" fill="rgb(0, 0, 0)" shape-rendering="geometricPrecision" /></g><g><text xml:space="preserve" text-anchor="start" text-rendering="geometricPrecision"><tspan x="433.4" y="46.56" font-family="Arial" font-size="10" fill="rgb(0, 0, 0)">O</tspan></text></g><g id="Solid"><line x1="436" y1="57.06" x2="436" y2="48.3" stroke="rgb(0, 0, 0)" stroke-width="0.6" shape-rendering="auto" /><path d="M438.3 57.29 L438.3 57.29 L438.9 57.63 L438.9 48.3 L438.3 48.3 Z" stroke="rgb(0, 0, 0)" stroke-width="0" fill-rule="evenodd" stroke-linejoin="miter" fill="rgb(0, 0, 0)" shape-rendering="geometricPrecision" /><path d="M435.7 57.64 L435.7 57.64 L436.3 57.29 L436.3 48.3 L435.7 48.3 Z" stroke="rgb(0, 0, 0)" stroke-width="0" fill-rule="evenodd" stroke-linejoin="miter" fill="rgb(0, 0, 0)" shape-rendering="geometricPrecision" /></g><g id="Solid"><path d="M437.3 57.41 L437.3 57.41 L437.3 57.06 L437.3 56.71 L449.93 64 L449.78 64.26 L449.63 64.52 Z" stroke="rgb(0, 0, 0)" stroke-width="0" fill-rule="evenodd" stroke-linejoin="miter" fill="rgb(0, 0, 0)" shape-rendering="geometricPrecision" /></g><g><text xml:space="preserve" text-anchor="start" text-rendering="geometricPrecision"><tspan x="400.75" y="61" font-family="Arial" font-size="10" fill="rgb(0, 0, 0)">2</tspan></text></g></g></g></svg>