<?xml version="1.0"?><svg xmlns="http://www.w3.org/2000/svg" xmlns:xlink="http://www.w3.org/1999/xlink" viewBox="17.95 30.9 347.43 67.85" preserveAspectRatio="xMidYMid" width="100%" height="100%"><clipPath id="635"><rect x="0.3" y="0.3" width="539.4" height="719.15" /></clipPath><g id="drawing"><rect x="17.95" y="30.9" width="100%" height="100%" fill="rgb(255, 255, 255)" /><g id="page" clip-path="url(#635)"><g><text xml:space="preserve" text-anchor="start" text-rendering="geometricPrecision"><tspan x="17.95" y="96.2" font-family="Arial" font-size="10" fill="rgb(0, 0, 0)">R = Alkyl, Aryl, H</tspan></text></g><g><text xml:space="preserve" text-anchor="end" text-rendering="geometricPrecision"><tspan x="37.57" y="64.1" font-family="Arial" font-size="10" fill="rgb(0, 0, 0)">R</tspan><tspan font-family="Arial" dy="2.26" font-size="7.5" fill="rgb(0, 0, 0)">2</tspan></text></g><g><text xml:space="preserve" text-anchor="start" text-rendering="geometricPrecision"><tspan x="53.52" y="39.24" font-family="Arial" font-size="10" fill="rgb(0, 0, 0)">R</tspan><tspan font-family="Arial" dy="2.26" font-size="7.5" fill="rgb(0, 0, 0)">3</tspan></text></g><g id="Solid"><path d="M53.78 40.54 L53.78 40.54 L54.04 40.69 L54.3 40.84 L50.47 47.47 L49.95 47.77 L49.78 47.47 Z" stroke="rgb(0, 0, 0)" stroke-width="0" fill-rule="evenodd" stroke-linejoin="miter" fill="rgb(0, 0, 0)" shape-rendering="geometricPrecision" /></g><g id="Solid"><path d="M49.78 47.47 L49.78 47.47 L49.95 47.77 L49.78 48.07 L35.77 48.07 L35.6 47.77 L35.77 47.47 Z" stroke="rgb(0, 0, 0)" stroke-width="0" fill-rule="evenodd" stroke-linejoin="miter" fill="rgb(0, 0, 0)" shape-rendering="geometricPrecision" /></g><g id="Solid"><path d="M35.25 47.77 L35.25 47.77 L35.6 47.77 L35.77 48.07 L31.33 55.76 L31.07 55.61 L30.81 55.46 Z" stroke="rgb(0, 0, 0)" stroke-width="0" fill-rule="evenodd" stroke-linejoin="miter" fill="rgb(0, 0, 0)" shape-rendering="geometricPrecision" /></g><g><text xml:space="preserve" text-anchor="end" text-rendering="geometricPrecision"><tspan x="37.57" y="39.24" font-family="Arial" font-size="10" fill="rgb(0, 0, 0)">R</tspan><tspan font-family="Arial" dy="2.26" font-size="7.5" fill="rgb(0, 0, 0)">1</tspan></text></g><g id="Solid"><path d="M35.77 47.47 L35.77 47.47 L35.6 47.77 L35.25 47.77 L32.29 42.64 L32.55 42.49 L32.81 42.34 Z" stroke="rgb(0, 0, 0)" stroke-width="0" fill-rule="evenodd" stroke-linejoin="miter" fill="rgb(0, 0, 0)" shape-rendering="geometricPrecision" /></g><g id="Solid"><path d="M49.78 48.07 L49.78 48.07 L49.95 47.77 L50.47 48.07 L57.38 60.05 L57.12 60.2 L56.86 60.35 Z" stroke="rgb(0, 0, 0)" stroke-width="0" fill-rule="evenodd" stroke-linejoin="miter" fill="rgb(0, 0, 0)" shape-rendering="geometricPrecision" /></g><g id="Solid"><path d="M50.47 48.07 L50.47 48.07 L49.95 47.77 L50.47 47.47 L60.7 47.47 L60.7 47.77 L60.7 48.07 Z" stroke="rgb(0, 0, 0)" stroke-width="0" fill-rule="evenodd" stroke-linejoin="miter" fill="rgb(0, 0, 0)" shape-rendering="geometricPrecision" /></g><g><text xml:space="preserve" text-anchor="start" text-rendering="geometricPrecision"><tspan x="61.52" y="51.67" font-family="Arial" font-size="10" fill="rgb(0, 0, 0)">LG</tspan></text></g><g id="Arrow"><line x1="184.15" y1="48.6" x2="159.6" y2="48.6" stroke="rgb(0, 0, 0)" stroke-width="0.6" shape-rendering="auto" /><path d="M188.4 48.6 L182.4 47.1 C183.59 47.94 183.59 49.26 182.4 50.1 Z" stroke="rgb(0, 0, 0)" stroke-width="0" fill-rule="evenodd" stroke-linejoin="miter" stroke-miterlimit="6.93525005514877" fill="rgb(0, 0, 0)" shape-rendering="geometricPrecision" /></g><g><text xml:space="preserve" text-anchor="start" text-rendering="geometricPrecision"><tspan x="89.29" y="51.8" font-family="Arial" font-size="10" fill="rgb(0, 0, 0)">+</tspan></text></g><g id="Solid"><path d="M109.84 59.53 L109.84 59.53 L109.69 59.27 L109.54 59.01 L121.86 51.9 L122.16 52.07 L122.16 52.42 Z" stroke="rgb(0, 0, 0)" stroke-width="0" fill-rule="evenodd" stroke-linejoin="miter" fill="rgb(0, 0, 0)" shape-rendering="geometricPrecision" /></g><g id="Solid"><path d="M122.46 51.55 L122.46 51.55 L122.16 52.07 L121.86 51.9 L121.86 37.67 L122.16 37.67 L122.46 37.67 Z" stroke="rgb(0, 0, 0)" stroke-width="0" fill-rule="evenodd" stroke-linejoin="miter" fill="rgb(0, 0, 0)" shape-rendering="geometricPrecision" /></g><g id="Solid"><path d="M122.16 52.42 L122.16 52.42 L122.16 52.07 L122.76 52.07 L134.78 59.01 L134.63 59.27 L134.48 59.53 Z" stroke="rgb(0, 0, 0)" stroke-width="0" fill-rule="evenodd" stroke-linejoin="miter" fill="rgb(0, 0, 0)" shape-rendering="geometricPrecision" /></g><g><text xml:space="preserve" text-anchor="start" text-rendering="geometricPrecision"><tspan x="130.73" y="48.77" font-family="Arial" font-size="10" fill="rgb(0, 0, 0)">OK</tspan></text></g><g id="Solid"><path d="M122.76 52.07 L122.76 52.07 L122.16 52.07 L122.46 51.55 L129.86 47.28 L130.01 47.53 L130.16 47.79 Z" stroke="rgb(0, 0, 0)" stroke-width="0" fill-rule="evenodd" stroke-linejoin="miter" fill="rgb(0, 0, 0)" shape-rendering="geometricPrecision" /></g><g><text xml:space="preserve" text-anchor="start" text-rendering="geometricPrecision"><tspan x="103.5" y="96.2" font-family="Arial" font-size="10" fill="rgb(0, 0, 0)">LG = OTs, I, Br, Cl</tspan></text></g><g><text xml:space="preserve" text-anchor="end" text-rendering="geometricPrecision"><tspan x="214.19" y="64.1" font-family="Arial" font-size="10" fill="rgb(0, 0, 0)">R</tspan><tspan font-family="Arial" dy="2.26" font-size="7.5" fill="rgb(0, 0, 0)">2</tspan></text></g><g><text xml:space="preserve" text-anchor="start" text-rendering="geometricPrecision"><tspan x="230.14" y="39.24" font-family="Arial" font-size="10" fill="rgb(0, 0, 0)">R</tspan><tspan font-family="Arial" dy="2.26" font-size="7.5" fill="rgb(0, 0, 0)">3</tspan></text></g><g id="Solid"><path d="M230.4 40.54 L230.4 40.54 L230.66 40.69 L230.92 40.84 L226.74 48.07 L226.57 47.77 L226.4 47.47 Z" stroke="rgb(0, 0, 0)" stroke-width="0" fill-rule="evenodd" stroke-linejoin="miter" fill="rgb(0, 0, 0)" shape-rendering="geometricPrecision" /></g><g id="Solid"><path d="M226.4 47.47 L226.4 47.47 L226.57 47.77 L226.74 48.07 L212.39 48.07 L212.22 47.77 L212.39 47.47 Z" stroke="rgb(0, 0, 0)" stroke-width="0" fill-rule="evenodd" stroke-linejoin="miter" fill="rgb(0, 0, 0)" shape-rendering="geometricPrecision" /></g><g id="Solid"><path d="M211.87 47.77 L211.87 47.77 L212.22 47.77 L212.39 48.07 L207.95 55.76 L207.69 55.61 L207.43 55.46 Z" stroke="rgb(0, 0, 0)" stroke-width="0" fill-rule="evenodd" stroke-linejoin="miter" fill="rgb(0, 0, 0)" shape-rendering="geometricPrecision" /></g><g id="Solid"><path d="M212.39 47.47 L212.39 47.47 L212.22 47.77 L211.87 47.77 L208.91 42.64 L209.17 42.49 L209.43 42.34 Z" stroke="rgb(0, 0, 0)" stroke-width="0" fill-rule="evenodd" stroke-linejoin="miter" fill="rgb(0, 0, 0)" shape-rendering="geometricPrecision" /></g><g><text xml:space="preserve" text-anchor="end" text-rendering="geometricPrecision"><tspan x="214.19" y="39.24" font-family="Arial" font-size="10" fill="rgb(0, 0, 0)">R</tspan><tspan font-family="Arial" dy="2.26" font-size="7.5" fill="rgb(0, 0, 0)">1</tspan></text></g><g id="Solid"><line x1="227.69" y1="47.12" x2="234.86" y2="59.55" stroke="rgb(0, 0, 0)" stroke-width="0.6" shape-rendering="auto" /><path d="M225.6 48.07 L225.6 48.07 L224.91 48.07 L232.36 61 L232.88 60.7 Z" stroke="rgb(0, 0, 0)" stroke-width="0" fill-rule="evenodd" stroke-linejoin="miter" fill="rgb(0, 0, 0)" shape-rendering="geometricPrecision" /><path d="M227.66 46.48 L227.66 46.48 L227.32 47.08 L234.6 59.7 L235.12 59.4 Z" stroke="rgb(0, 0, 0)" stroke-width="0" fill-rule="evenodd" stroke-linejoin="miter" fill="rgb(0, 0, 0)" shape-rendering="geometricPrecision" /></g><g><text xml:space="preserve" text-anchor="start" text-rendering="geometricPrecision"><tspan x="255.93" y="51.8" font-family="Arial" font-size="10" fill="rgb(0, 0, 0)">+</tspan></text></g><g id="Solid"><path d="M276.48 59.53 L276.48 59.53 L276.33 59.27 L276.18 59.01 L288.5 51.9 L288.8 52.07 L288.8 52.42 Z" stroke="rgb(0, 0, 0)" stroke-width="0" fill-rule="evenodd" stroke-linejoin="miter" fill="rgb(0, 0, 0)" shape-rendering="geometricPrecision" /></g><g id="Solid"><path d="M289.1 51.55 L289.1 51.55 L288.8 52.07 L288.5 51.9 L288.5 37.67 L288.8 37.67 L289.1 37.67 Z" stroke="rgb(0, 0, 0)" stroke-width="0" fill-rule="evenodd" stroke-linejoin="miter" fill="rgb(0, 0, 0)" shape-rendering="geometricPrecision" /></g><g id="Solid"><path d="M288.8 52.42 L288.8 52.42 L288.8 52.07 L289.4 52.07 L301.43 59.01 L301.28 59.27 L301.13 59.53 Z" stroke="rgb(0, 0, 0)" stroke-width="0" fill-rule="evenodd" stroke-linejoin="miter" fill="rgb(0, 0, 0)" shape-rendering="geometricPrecision" /></g><g id="Solid"><path d="M289.4 52.07 L289.4 52.07 L288.8 52.07 L289.1 51.55 L296.56 47.24 L296.71 47.5 L296.86 47.76 Z" stroke="rgb(0, 0, 0)" stroke-width="0" fill-rule="evenodd" stroke-linejoin="miter" fill="rgb(0, 0, 0)" shape-rendering="geometricPrecision" /></g><g><text xml:space="preserve" text-anchor="start" text-rendering="geometricPrecision"><tspan x="297.38" y="48.77" font-family="Arial" font-size="10" fill="rgb(0, 0, 0)">OH</tspan></text></g><g><text xml:space="preserve" text-anchor="start" text-rendering="geometricPrecision"><tspan x="323.29" y="51.8" font-family="Arial" font-size="10" fill="rgb(0, 0, 0)">+</tspan></text></g><g><text xml:space="preserve" text-anchor="start" text-rendering="geometricPrecision"><tspan x="342" y="50.5" font-family="Arial" font-size="10" fill="rgb(0, 0, 0)">K-LG</tspan></text></g></g></g></svg>