<?xml version="1.0"?><svg xmlns="http://www.w3.org/2000/svg" xmlns:xlink="http://www.w3.org/1999/xlink" viewBox="19.2 42.21 202.72 78.09" preserveAspectRatio="xMidYMid" width="100%" height="100%"><clipPath id="186"><rect x="0.3" y="0.3" width="539.4" height="719.15" /></clipPath><g id="drawing"><rect x="19.2" y="42.21" width="100%" height="100%" fill="rgb(255, 255, 255)" /><g id="page" clip-path="url(#186)"><g><text xml:space="preserve" text-anchor="start" text-rendering="geometricPrecision"><tspan x="20.04" y="117.75" font-family="Arial" font-size="10" fill="rgb(0, 0, 0)">X = Cl, Br, I</tspan></text></g><g id="Solid"><path d="M19.2 58.83 L19.2 58.83 L19.5 59 L19.8 59.17 L19.8 73.23 L19.5 73.4 L19.2 73.57 Z" stroke="rgb(0, 0, 0)" stroke-width="0" fill-rule="evenodd" stroke-linejoin="miter" fill="rgb(0, 0, 0)" shape-rendering="geometricPrecision" /><line x1="22.09" y1="60.5" x2="22.09" y2="71.9" stroke="rgb(0, 0, 0)" stroke-width="0.6" shape-rendering="auto" /></g><g id="Solid"><path d="M19.2 73.57 L19.2 73.57 L19.5 73.4 L19.8 73.23 L31.97 80.25 L31.97 80.6 L31.97 80.95 Z" stroke="rgb(0, 0, 0)" stroke-width="0" fill-rule="evenodd" stroke-linejoin="miter" fill="rgb(0, 0, 0)" shape-rendering="geometricPrecision" /></g><g id="Solid"><path d="M31.97 80.95 L31.97 80.95 L31.97 80.6 L31.97 80.25 L44.14 73.23 L44.44 73.4 L44.74 73.57 Z" stroke="rgb(0, 0, 0)" stroke-width="0" fill-rule="evenodd" stroke-linejoin="miter" fill="rgb(0, 0, 0)" shape-rendering="geometricPrecision" /><line x1="31.97" y1="77.61" x2="41.85" y2="71.9" stroke="rgb(0, 0, 0)" stroke-width="0.6" shape-rendering="auto" /></g><g id="Solid"><path d="M44.74 73.57 L44.74 73.57 L44.44 73.4 L44.14 73.23 L44.14 59.17 L44.44 59 L44.74 58.83 Z" stroke="rgb(0, 0, 0)" stroke-width="0" fill-rule="evenodd" stroke-linejoin="miter" fill="rgb(0, 0, 0)" shape-rendering="geometricPrecision" /></g><g id="Solid"><path d="M44.74 58.83 L44.74 58.83 L44.44 59 L44.14 59.17 L31.97 52.15 L31.97 51.8 L31.97 51.45 Z" stroke="rgb(0, 0, 0)" stroke-width="0" fill-rule="evenodd" stroke-linejoin="miter" fill="rgb(0, 0, 0)" shape-rendering="geometricPrecision" /><line x1="41.85" y1="60.5" x2="31.97" y2="54.79" stroke="rgb(0, 0, 0)" stroke-width="0.6" shape-rendering="auto" /></g><g id="Solid"><path d="M31.97 51.45 L31.97 51.45 L31.97 51.8 L31.97 52.15 L19.8 59.17 L19.5 59 L19.2 58.83 Z" stroke="rgb(0, 0, 0)" stroke-width="0" fill-rule="evenodd" stroke-linejoin="miter" fill="rgb(0, 0, 0)" shape-rendering="geometricPrecision" /></g><g><text xml:space="preserve" text-anchor="start" text-rendering="geometricPrecision"><tspan x="59.14" y="69.4" font-family="Arial" font-size="10" fill="rgb(0, 0, 0)">+</tspan></text></g><g><text xml:space="preserve" text-anchor="start" text-rendering="geometricPrecision"><tspan x="79.39" y="69.4" font-family="Arial" font-size="10" fill="rgb(0, 0, 0)">X</tspan><tspan font-family="Arial" dy="2.26" font-size="7.5" fill="rgb(0, 0, 0)">2</tspan></text></g><g id="Arrow"><line x1="129.18" y1="66.2" x2="104.63" y2="66.2" stroke="rgb(0, 0, 0)" stroke-width="0.6" shape-rendering="auto" /><path d="M133.43 66.2 L127.43 64.7 C128.62 65.54 128.62 66.86 127.43 67.7 Z" stroke="rgb(0, 0, 0)" stroke-width="0" fill-rule="evenodd" stroke-linejoin="miter" stroke-miterlimit="6.93525005514877" fill="rgb(0, 0, 0)" shape-rendering="geometricPrecision" /></g><g id="Solid"><path d="M147.83 68.08 L147.83 68.08 L148.13 68.25 L148.43 68.42 L148.43 82.48 L148.13 82.65 L147.83 82.82 Z" stroke="rgb(0, 0, 0)" stroke-width="0" fill-rule="evenodd" stroke-linejoin="miter" fill="rgb(0, 0, 0)" shape-rendering="geometricPrecision" /><line x1="150.72" y1="69.75" x2="150.72" y2="81.15" stroke="rgb(0, 0, 0)" stroke-width="0.6" shape-rendering="auto" /></g><g id="Solid"><path d="M147.83 82.82 L147.83 82.82 L148.13 82.65 L148.43 82.48 L160.6 89.5 L160.6 89.85 L160.6 90.2 Z" stroke="rgb(0, 0, 0)" stroke-width="0" fill-rule="evenodd" stroke-linejoin="miter" fill="rgb(0, 0, 0)" shape-rendering="geometricPrecision" /></g><g id="Solid"><path d="M160.6 90.2 L160.6 90.2 L160.6 89.85 L160.6 89.5 L172.77 82.48 L173.07 82.65 L173.37 82.82 Z" stroke="rgb(0, 0, 0)" stroke-width="0" fill-rule="evenodd" stroke-linejoin="miter" fill="rgb(0, 0, 0)" shape-rendering="geometricPrecision" /><line x1="160.6" y1="86.86" x2="170.48" y2="81.15" stroke="rgb(0, 0, 0)" stroke-width="0.6" shape-rendering="auto" /></g><g id="Solid"><path d="M173.37 82.82 L173.37 82.82 L173.07 82.65 L172.77 82.48 L172.77 68.42 L173.07 68.25 L173.37 68.08 Z" stroke="rgb(0, 0, 0)" stroke-width="0" fill-rule="evenodd" stroke-linejoin="miter" fill="rgb(0, 0, 0)" shape-rendering="geometricPrecision" /></g><g id="Solid"><path d="M173.37 68.08 L173.37 68.08 L173.07 68.25 L172.77 68.42 L160.6 61.4 L160.6 61.05 L160.9 60.88 Z" stroke="rgb(0, 0, 0)" stroke-width="0" fill-rule="evenodd" stroke-linejoin="miter" fill="rgb(0, 0, 0)" shape-rendering="geometricPrecision" /><line x1="170.48" y1="69.75" x2="160.6" y2="64.04" stroke="rgb(0, 0, 0)" stroke-width="0.6" shape-rendering="auto" /></g><g id="Solid"><path d="M160.3 60.88 L160.3 60.88 L160.6 61.05 L160.6 61.4 L148.43 68.42 L148.13 68.25 L147.83 68.08 Z" stroke="rgb(0, 0, 0)" stroke-width="0" fill-rule="evenodd" stroke-linejoin="miter" fill="rgb(0, 0, 0)" shape-rendering="geometricPrecision" /></g><g id="Solid"><path d="M160.9 60.88 L160.9 60.88 L160.6 61.05 L160.3 60.88 L160.3 52.2 L160.6 52.2 L160.9 52.2 Z" stroke="rgb(0, 0, 0)" stroke-width="0" fill-rule="evenodd" stroke-linejoin="miter" fill="rgb(0, 0, 0)" shape-rendering="geometricPrecision" /></g><g><text xml:space="preserve" text-anchor="start" text-rendering="geometricPrecision"><tspan x="157.28" y="50.55" font-family="Arial" font-size="10" fill="rgb(0, 0, 0)">X</tspan></text></g><g><text xml:space="preserve" text-anchor="start" text-rendering="geometricPrecision"><tspan x="187.77" y="69.4" font-family="Arial" font-size="10" fill="rgb(0, 0, 0)">+</tspan></text></g><g><text xml:space="preserve" text-anchor="start" text-rendering="geometricPrecision"><tspan x="208.02" y="69.4" font-family="Arial" font-size="10" fill="rgb(0, 0, 0)">HX</tspan></text></g></g></g></svg>