<?xml version="1.0"?><svg xmlns="http://www.w3.org/2000/svg" xmlns:xlink="http://www.w3.org/1999/xlink" viewBox="17.92 37.32 368.08 72.48" preserveAspectRatio="xMidYMid" width="100%" height="100%"><clipPath id="279"><rect x="0.3" y="0.3" width="539.4" height="719.15" /></clipPath><g id="drawing"><rect x="17.92" y="37.32" width="100%" height="100%" fill="rgb(255, 255, 255)" /><g id="page" clip-path="url(#279)"><g><text xml:space="preserve" text-anchor="start" text-rendering="geometricPrecision"><tspan x="18" y="107.25" font-family="Arial" font-size="10" fill="rgb(0, 0, 0)">R = Alkyl, Aryl, H</tspan></text></g><g><text xml:space="preserve" text-anchor="start" text-rendering="geometricPrecision"><tspan x="45.26" y="45.66" font-family="Arial" font-size="10" fill="rgb(0, 0, 0)">R</tspan><tspan font-family="Arial" dy="2.26" font-size="7.5" fill="rgb(0, 0, 0)">3</tspan></text></g><g id="Solid"><path d="M45.62 46.95 L45.62 46.95 L45.88 47.1 L46.14 47.24 L42.21 54.29 L41.86 54.29 L41.68 53.99 Z" stroke="rgb(0, 0, 0)" stroke-width="0" fill-rule="evenodd" stroke-linejoin="miter" fill="rgb(0, 0, 0)" shape-rendering="geometricPrecision" /></g><g id="Solid"><path d="M41.69 54.59 L41.69 54.59 L41.86 54.29 L42.21 54.29 L46.72 61.87 L46.46 62.03 L46.21 62.18 Z" stroke="rgb(0, 0, 0)" stroke-width="0" fill-rule="evenodd" stroke-linejoin="miter" fill="rgb(0, 0, 0)" shape-rendering="geometricPrecision" /></g><g><text xml:space="preserve" text-anchor="start" text-rendering="geometricPrecision"><tspan x="46.43" y="70.52" font-family="Arial" font-size="10" fill="rgb(0, 0, 0)">LG</tspan></text></g><g id="Solid"><path d="M41.68 53.99 L41.68 53.99 L41.86 54.29 L41.69 54.59 L27.69 54.79 L27.51 54.49 L27.68 54.19 Z" stroke="rgb(0, 0, 0)" stroke-width="0" fill-rule="evenodd" stroke-linejoin="miter" fill="rgb(0, 0, 0)" shape-rendering="geometricPrecision" /></g><g><text xml:space="preserve" text-anchor="end" text-rendering="geometricPrecision"><tspan x="29.66" y="70.91" font-family="Arial" font-size="10" fill="rgb(0, 0, 0)">R</tspan><tspan font-family="Arial" dy="2.26" font-size="7.5" fill="rgb(0, 0, 0)">2</tspan></text></g><g id="Solid"><path d="M27.16 54.49 L27.16 54.49 L27.51 54.49 L27.69 54.79 L23.35 62.55 L23.09 62.4 L22.82 62.26 Z" stroke="rgb(0, 0, 0)" stroke-width="0" fill-rule="evenodd" stroke-linejoin="miter" fill="rgb(0, 0, 0)" shape-rendering="geometricPrecision" /></g><g><text xml:space="preserve" text-anchor="end" text-rendering="geometricPrecision"><tspan x="29.32" y="46.06" font-family="Arial" font-size="10" fill="rgb(0, 0, 0)">R</tspan><tspan font-family="Arial" dy="2.26" font-size="7.5" fill="rgb(0, 0, 0)">1</tspan></text></g><g id="Solid"><path d="M27.68 54.19 L27.68 54.19 L27.51 54.49 L27.16 54.49 L24.15 49.43 L24.41 49.27 L24.66 49.12 Z" stroke="rgb(0, 0, 0)" stroke-width="0" fill-rule="evenodd" stroke-linejoin="miter" fill="rgb(0, 0, 0)" shape-rendering="geometricPrecision" /></g><g><text xml:space="preserve" text-anchor="start" text-rendering="geometricPrecision"><tspan x="74.19" y="58.42" font-family="Arial" font-size="10" fill="rgb(0, 0, 0)">+</tspan></text></g><g><text xml:space="preserve" text-anchor="start" text-rendering="geometricPrecision"><tspan x="94.44" y="58.42" font-family="Arial" font-size="10" fill="rgb(0, 0, 0)">AgNO</tspan><tspan font-family="Arial" dy="2.26" font-size="7.5" fill="rgb(0, 0, 0)">3</tspan></text></g><g id="Arrow"><line x1="212.25" y1="55.22" x2="187.7" y2="55.22" stroke="rgb(0, 0, 0)" stroke-width="0.6" shape-rendering="auto" /><path d="M216.5 55.22 L210.5 53.72 C211.69 54.56 211.69 55.88 210.5 56.72 Z" stroke="rgb(0, 0, 0)" stroke-width="0" fill-rule="evenodd" stroke-linejoin="miter" stroke-miterlimit="6.93525005514877" fill="rgb(0, 0, 0)" shape-rendering="geometricPrecision" /></g><g><text xml:space="preserve" text-anchor="start" text-rendering="geometricPrecision"><tspan x="258.24" y="45.86" font-family="Arial" font-size="10" fill="rgb(0, 0, 0)">R</tspan><tspan font-family="Arial" dy="2.26" font-size="7.5" fill="rgb(0, 0, 0)">3</tspan></text></g><g id="Solid"><path d="M258.5 47.14 L258.5 47.14 L258.76 47.29 L259.02 47.44 L255.01 54.39 L254.66 54.39 L254.49 54.09 Z" stroke="rgb(0, 0, 0)" stroke-width="0" fill-rule="evenodd" stroke-linejoin="miter" fill="rgb(0, 0, 0)" shape-rendering="geometricPrecision" /></g><g id="Solid"><path d="M254.49 54.69 L254.49 54.69 L254.66 54.39 L255.01 54.39 L259.44 62.06 L259.18 62.21 L258.92 62.36 Z" stroke="rgb(0, 0, 0)" stroke-width="0" fill-rule="evenodd" stroke-linejoin="miter" fill="rgb(0, 0, 0)" shape-rendering="geometricPrecision" /></g><g><text xml:space="preserve" text-anchor="start" text-rendering="geometricPrecision"><tspan x="258.24" y="70.71" font-family="Arial" font-size="10" fill="rgb(0, 0, 0)">Nu</tspan></text></g><g id="Solid"><path d="M254.49 54.09 L254.49 54.09 L254.66 54.39 L254.49 54.69 L240.48 54.69 L240.31 54.39 L240.48 54.09 Z" stroke="rgb(0, 0, 0)" stroke-width="0" fill-rule="evenodd" stroke-linejoin="miter" fill="rgb(0, 0, 0)" shape-rendering="geometricPrecision" /></g><g><text xml:space="preserve" text-anchor="end" text-rendering="geometricPrecision"><tspan x="242.29" y="70.71" font-family="Arial" font-size="10" fill="rgb(0, 0, 0)">R</tspan><tspan font-family="Arial" dy="2.26" font-size="7.5" fill="rgb(0, 0, 0)">2</tspan></text></g><g id="Solid"><path d="M239.96 54.39 L239.96 54.39 L240.31 54.39 L240.48 54.69 L236.05 62.36 L235.79 62.21 L235.53 62.06 Z" stroke="rgb(0, 0, 0)" stroke-width="0" fill-rule="evenodd" stroke-linejoin="miter" fill="rgb(0, 0, 0)" shape-rendering="geometricPrecision" /></g><g id="Solid"><path d="M240.48 54.09 L240.48 54.09 L240.31 54.39 L239.96 54.39 L236.99 49.24 L237.25 49.09 L237.51 48.94 Z" stroke="rgb(0, 0, 0)" stroke-width="0" fill-rule="evenodd" stroke-linejoin="miter" fill="rgb(0, 0, 0)" shape-rendering="geometricPrecision" /></g><g><text xml:space="preserve" text-anchor="end" text-rendering="geometricPrecision"><tspan x="242.29" y="45.86" font-family="Arial" font-size="10" fill="rgb(0, 0, 0)">R</tspan><tspan font-family="Arial" dy="2.26" font-size="7.5" fill="rgb(0, 0, 0)">1</tspan></text></g><g><text xml:space="preserve" text-anchor="start" text-rendering="geometricPrecision"><tspan x="160.51" y="58.42" font-family="Arial" font-size="10" fill="rgb(0, 0, 0)">Nu</tspan></text></g><g><text xml:space="preserve" text-anchor="start" text-rendering="geometricPrecision"><tspan x="285.42" y="58.42" font-family="Arial" font-size="10" fill="rgb(0, 0, 0)">+</tspan></text></g><g><text xml:space="preserve" text-anchor="start" text-rendering="geometricPrecision"><tspan x="305.67" y="58.42" font-family="Arial" font-size="10" fill="rgb(0, 0, 0)">AgX</tspan></text></g><g><text xml:space="preserve" text-anchor="start" text-rendering="geometricPrecision"><tspan x="116.89" y="107.25" font-family="Arial" font-size="10" fill="rgb(0, 0, 0)">X = Cl, Br, I</tspan></text></g><g><text xml:space="preserve" text-anchor="start" text-rendering="geometricPrecision"><tspan x="140.26" y="58.42" font-family="Arial" font-size="10" fill="rgb(0, 0, 0)">+</tspan></text></g><g><text xml:space="preserve" text-anchor="start" text-rendering="geometricPrecision"><tspan x="338.97" y="58.42" font-family="Arial" font-size="10" fill="rgb(0, 0, 0)">+</tspan></text></g><g><text xml:space="preserve" text-anchor="start" text-rendering="geometricPrecision"><tspan x="359.22" y="58.42" font-family="Arial" font-size="10" fill="rgb(0, 0, 0)">HNO</tspan><tspan font-family="Arial" dy="2.26" font-size="7.5" fill="rgb(0, 0, 0)">3</tspan></text></g><g><text xml:space="preserve" text-anchor="start" text-rendering="geometricPrecision"><tspan x="186.64" y="107.25" font-family="Arial" font-size="10" fill="rgb(0, 0, 0)">Nu = SR, OR, NR`R</tspan></text></g></g></g></svg>