<?xml version="1.0"?><svg xmlns="http://www.w3.org/2000/svg" xmlns:xlink="http://www.w3.org/1999/xlink" viewBox="17.68 31.79 277.84 78.01" preserveAspectRatio="xMidYMid" width="100%" height="100%"><clipPath id="92"><rect x="0.3" y="0.3" width="539.4" height="719.15" /></clipPath><g id="drawing"><rect x="17.68" y="31.79" width="100%" height="100%" fill="rgb(255, 255, 255)" /><g id="page" clip-path="url(#92)"><g id="Arrow"><line x1="171.86" y1="55.06" x2="147.31" y2="55.06" stroke="rgb(0, 0, 0)" stroke-width="0.6" shape-rendering="auto" /><path d="M176.11 55.06 L170.11 53.56 C171.3 54.4 171.3 55.72 170.11 56.56 Z" stroke="rgb(0, 0, 0)" stroke-width="0" fill-rule="evenodd" stroke-linejoin="miter" stroke-miterlimit="6.93525005514877" fill="rgb(0, 0, 0)" shape-rendering="geometricPrecision" /></g><g><text xml:space="preserve" text-anchor="start" text-rendering="geometricPrecision"><tspan x="71.39" y="58.26" font-family="Arial" font-size="10" fill="rgb(0, 0, 0)">+</tspan></text></g><g><text xml:space="preserve" text-anchor="end" text-rendering="geometricPrecision"><tspan x="29.07" y="68.95" font-family="Arial" font-size="10" fill="rgb(0, 0, 0)">R</tspan><tspan font-family="Arial" dy="2.26" font-size="7.5" fill="rgb(0, 0, 0)">1</tspan></text></g><g id="Solid"><path d="M29.9 63.31 L29.9 63.31 L29.75 63.05 L29.6 62.79 L38.72 57.52 L38.72 57.87 L38.72 58.22 Z" stroke="rgb(0, 0, 0)" stroke-width="0" fill-rule="evenodd" stroke-linejoin="miter" fill="rgb(0, 0, 0)" shape-rendering="geometricPrecision" /></g><g><text xml:space="preserve" text-anchor="start" text-rendering="geometricPrecision"><tspan x="47.55" y="68.95" font-family="Arial" font-size="10" fill="rgb(0, 0, 0)">Cl</tspan></text></g><g id="Solid"><path d="M38.72 58.22 L38.72 58.22 L38.72 57.87 L38.72 57.52 L47.16 62.4 L47.01 62.66 L46.86 62.92 Z" stroke="rgb(0, 0, 0)" stroke-width="0" fill-rule="evenodd" stroke-linejoin="miter" fill="rgb(0, 0, 0)" shape-rendering="geometricPrecision" /></g><g><text xml:space="preserve" text-anchor="start" text-rendering="geometricPrecision"><tspan x="34.82" y="47.42" font-family="Arial" font-size="10" fill="rgb(0, 0, 0)">O</tspan></text></g><g id="Solid"><line x1="37.43" y1="57.87" x2="37.43" y2="49.2" stroke="rgb(0, 0, 0)" stroke-width="0.6" shape-rendering="auto" /><path d="M39.71 58.1 L39.71 58.1 L40.31 58.44 L40.31 49.2 L39.71 49.2 Z" stroke="rgb(0, 0, 0)" stroke-width="0" fill-rule="evenodd" stroke-linejoin="miter" fill="rgb(0, 0, 0)" shape-rendering="geometricPrecision" /><path d="M37.13 58.44 L37.13 58.44 L37.73 58.1 L37.73 49.2 L37.13 49.2 Z" stroke="rgb(0, 0, 0)" stroke-width="0" fill-rule="evenodd" stroke-linejoin="miter" fill="rgb(0, 0, 0)" shape-rendering="geometricPrecision" /></g><g><text xml:space="preserve" text-anchor="end" text-rendering="geometricPrecision"><tspan x="103.03" y="65.84" font-family="Arial" font-size="10" fill="rgb(0, 0, 0)">R</tspan><tspan font-family="Arial" dy="2.26" font-size="7.5" fill="rgb(0, 0, 0)">2</tspan></text></g><g id="Solid"><path d="M103.87 60.2 L103.87 60.2 L103.72 59.94 L103.57 59.68 L109.08 56.5 L109.23 56.76 L109.38 57.02 Z" stroke="rgb(0, 0, 0)" stroke-width="0" fill-rule="evenodd" stroke-linejoin="miter" fill="rgb(0, 0, 0)" shape-rendering="geometricPrecision" /></g><g><text xml:space="preserve" text-anchor="start" text-rendering="geometricPrecision"><tspan x="109.09" y="50.32" font-family="Arial" font-size="10" fill="rgb(0, 0, 0)">H</tspan><tspan x="109.09" y="85.49" font-family="Arial" font-size="10" fill="rgb(0, 0, 0)">N</tspan></text></g><g><text xml:space="preserve" text-anchor="start" text-rendering="geometricPrecision"><tspan x="121.51" y="65.84" font-family="Arial" font-size="10" fill="rgb(0, 0, 0)">R</tspan><tspan font-family="Arial" dy="2.26" font-size="7.5" fill="rgb(0, 0, 0)">3</tspan></text></g><g id="Solid"><path d="M116 57.02 L116 57.02 L116.15 56.76 L116.3 56.5 L121.06 59.26 L120.91 59.51 L120.76 59.77 Z" stroke="rgb(0, 0, 0)" stroke-width="0" fill-rule="evenodd" stroke-linejoin="miter" fill="rgb(0, 0, 0)" shape-rendering="geometricPrecision" /></g><g><text xml:space="preserve" text-anchor="end" text-rendering="geometricPrecision"><tspan x="201.9" y="61.77" font-family="Arial" font-size="10" fill="rgb(0, 0, 0)">R</tspan><tspan font-family="Arial" dy="2.26" font-size="7.5" fill="rgb(0, 0, 0)">1</tspan></text></g><g id="Solid"><path d="M202.73 56.13 L202.73 56.13 L202.58 55.87 L202.43 55.61 L211.55 50.35 L211.55 50.7 L211.55 51.05 Z" stroke="rgb(0, 0, 0)" stroke-width="0" fill-rule="evenodd" stroke-linejoin="miter" fill="rgb(0, 0, 0)" shape-rendering="geometricPrecision" /></g><g id="Solid"><path d="M211.55 51.05 L211.55 51.05 L211.55 50.7 L211.55 50.35 L219.96 55.21 L219.81 55.47 L219.66 55.73 Z" stroke="rgb(0, 0, 0)" stroke-width="0" fill-rule="evenodd" stroke-linejoin="miter" fill="rgb(0, 0, 0)" shape-rendering="geometricPrecision" /></g><g><text xml:space="preserve" text-anchor="start" text-rendering="geometricPrecision"><tspan x="207.65" y="40.25" font-family="Arial" font-size="10" fill="rgb(0, 0, 0)">O</tspan></text></g><g id="Solid"><line x1="210.26" y1="50.7" x2="210.26" y2="42" stroke="rgb(0, 0, 0)" stroke-width="0.6" shape-rendering="auto" /><path d="M212.54 50.93 L212.54 50.93 L213.14 51.27 L213.14 42 L212.54 42 Z" stroke="rgb(0, 0, 0)" stroke-width="0" fill-rule="evenodd" stroke-linejoin="miter" fill="rgb(0, 0, 0)" shape-rendering="geometricPrecision" /><path d="M209.96 51.27 L209.96 51.27 L210.56 50.93 L210.56 42 L209.96 42 Z" stroke="rgb(0, 0, 0)" stroke-width="0" fill-rule="evenodd" stroke-linejoin="miter" fill="rgb(0, 0, 0)" shape-rendering="geometricPrecision" /></g><g><text xml:space="preserve" text-anchor="start" text-rendering="geometricPrecision"><tspan x="220.38" y="76.12" font-family="Arial" font-size="10" fill="rgb(0, 0, 0)">R</tspan><tspan font-family="Arial" dy="2.26" font-size="7.5" fill="rgb(0, 0, 0)">2</tspan></text></g><g id="Solid"><path d="M224.28 67.4 L224.28 67.4 L223.98 67.4 L223.68 67.4 L223.68 63.4 L223.98 63.4 L224.28 63.4 Z" stroke="rgb(0, 0, 0)" stroke-width="0" fill-rule="evenodd" stroke-linejoin="miter" fill="rgb(0, 0, 0)" shape-rendering="geometricPrecision" /></g><g><text xml:space="preserve" text-anchor="start" text-rendering="geometricPrecision"><tspan x="220.38" y="61.77" font-family="Arial" font-size="10" fill="rgb(0, 0, 0)">N</tspan></text></g><g><text xml:space="preserve" text-anchor="start" text-rendering="geometricPrecision"><tspan x="232.81" y="54.6" font-family="Arial" font-size="10" fill="rgb(0, 0, 0)">R</tspan><tspan font-family="Arial" dy="2.26" font-size="7.5" fill="rgb(0, 0, 0)">3</tspan></text></g><g id="Solid"><path d="M228.34 55.7 L228.34 55.7 L228.19 55.44 L228.04 55.18 L232.06 52.86 L232.21 53.12 L232.36 53.38 Z" stroke="rgb(0, 0, 0)" stroke-width="0" fill-rule="evenodd" stroke-linejoin="miter" fill="rgb(0, 0, 0)" shape-rendering="geometricPrecision" /></g><g><text xml:space="preserve" text-anchor="start" text-rendering="geometricPrecision"><tspan x="258.6" y="58.26" font-family="Arial" font-size="10" fill="rgb(0, 0, 0)">+</tspan></text></g><g><text xml:space="preserve" text-anchor="start" text-rendering="geometricPrecision"><tspan x="278.85" y="58.26" font-family="Arial" font-size="10" fill="rgb(0, 0, 0)">HCl</tspan></text></g><g><text xml:space="preserve" text-anchor="start" text-rendering="geometricPrecision"><tspan x="18" y="107.25" font-family="Arial" font-size="10" fill="rgb(0, 0, 0)">R = Alkyl, Aryl, H</tspan></text></g></g></g></svg>