<?xml version="1.0"?><svg xmlns="http://www.w3.org/2000/svg" xmlns:xlink="http://www.w3.org/1999/xlink" viewBox="17.95 41.04 290.4 68.96" preserveAspectRatio="xMidYMid" width="100%" height="100%"><clipPath id="313"><rect x="0.3" y="0.3" width="539.4" height="719.15" /></clipPath><g id="drawing"><rect x="17.95" y="41.04" width="100%" height="100%" fill="rgb(255, 255, 255)" /><g id="page" clip-path="url(#313)"><g><text xml:space="preserve" text-anchor="start" text-rendering="geometricPrecision"><tspan x="17.95" y="107.45" font-family="Arial" font-size="10" fill="rgb(0, 0, 0)">R = Alkyl, Aryl, H</tspan></text></g><g id="Arrow"><line x1="173.59" y1="60.77" x2="149.04" y2="60.77" stroke="rgb(0, 0, 0)" stroke-width="0.6" shape-rendering="auto" /><path d="M177.84 60.77 L171.84 59.27 C173.03 60.11 173.03 61.43 171.84 62.27 Z" stroke="rgb(0, 0, 0)" stroke-width="0" fill-rule="evenodd" stroke-linejoin="miter" stroke-miterlimit="6.93525005514877" fill="rgb(0, 0, 0)" shape-rendering="geometricPrecision" /></g><g><text xml:space="preserve" text-anchor="start" text-rendering="geometricPrecision"><tspan x="74.41" y="63.97" font-family="Arial" font-size="10" fill="rgb(0, 0, 0)">+</tspan></text></g><g><text xml:space="preserve" text-anchor="start" text-rendering="geometricPrecision"><tspan x="112.15" y="61.34" font-family="Arial" font-size="10" fill="rgb(0, 0, 0)">P</tspan></text></g><g id="Solid"><path d="M40.05 60.52 L40.05 60.52 L39.75 60 L40.05 59.83 L48.26 64.57 L48.11 64.83 L47.96 65.09 Z" stroke="rgb(0, 0, 0)" stroke-width="0" fill-rule="evenodd" stroke-linejoin="miter" fill="rgb(0, 0, 0)" shape-rendering="geometricPrecision" /></g><g><text xml:space="preserve" text-anchor="start" text-rendering="geometricPrecision"><tspan x="48.62" y="71.1" font-family="Arial" font-size="10" fill="rgb(0, 0, 0)">R</tspan><tspan font-family="Arial" dy="2.26" font-size="7.5" fill="rgb(0, 0, 0)">3</tspan></text></g><g><text xml:space="preserve" text-anchor="end" text-rendering="geometricPrecision"><tspan x="30.05" y="71.1" font-family="Arial" font-size="10" fill="rgb(0, 0, 0)">R</tspan><tspan font-family="Arial" dy="2.26" font-size="7.5" fill="rgb(0, 0, 0)">1</tspan></text></g><g id="Solid"><path d="M39.45 59.83 L39.45 59.83 L39.75 60 L39.45 60.52 L30.89 65.46 L30.74 65.2 L30.59 64.94 Z" stroke="rgb(0, 0, 0)" stroke-width="0" fill-rule="evenodd" stroke-linejoin="miter" fill="rgb(0, 0, 0)" shape-rendering="geometricPrecision" /></g><g id="Solid"><path d="M40.05 59.83 L40.05 59.83 L39.75 60 L39.45 59.83 L39.45 51.3 L39.75 51.3 L40.05 51.3 Z" stroke="rgb(0, 0, 0)" stroke-width="0" fill-rule="evenodd" stroke-linejoin="miter" fill="rgb(0, 0, 0)" shape-rendering="geometricPrecision" /></g><g><text xml:space="preserve" text-anchor="start" text-rendering="geometricPrecision"><tspan x="35.85" y="49.5" font-family="Arial" font-size="10" fill="rgb(0, 0, 0)">OH</tspan></text></g><g><text xml:space="preserve" text-anchor="start" text-rendering="geometricPrecision"><tspan x="36.15" y="78.3" font-family="Arial" font-size="10" fill="rgb(0, 0, 0)">R</tspan><tspan font-family="Arial" dy="2.26" font-size="7.5" fill="rgb(0, 0, 0)">2</tspan></text></g><g id="Solid"><path d="M39.45 60.52 L39.45 60.52 L39.75 60 L40.05 60.52 L40.05 69.6 L39.75 69.6 L39.45 69.6 Z" stroke="rgb(0, 0, 0)" stroke-width="0" fill-rule="evenodd" stroke-linejoin="miter" fill="rgb(0, 0, 0)" shape-rendering="geometricPrecision" /></g><g><text xml:space="preserve" text-anchor="start" text-rendering="geometricPrecision"><tspan x="112.15" y="75.74" font-family="Arial" font-size="10" fill="rgb(0, 0, 0)">Br</tspan></text></g><g id="Solid"><path d="M115.18 63 L115.18 63 L115.48 63 L115.78 63 L115.78 67 L115.48 67 L115.18 67 Z" stroke="rgb(0, 0, 0)" stroke-width="0" fill-rule="evenodd" stroke-linejoin="miter" fill="rgb(0, 0, 0)" shape-rendering="geometricPrecision" /></g><g><text xml:space="preserve" text-anchor="start" text-rendering="geometricPrecision"><tspan x="124.63" y="54.14" font-family="Arial" font-size="10" fill="rgb(0, 0, 0)">Br</tspan></text></g><g id="Solid"><path d="M119.94 55.21 L119.94 55.21 L119.79 54.95 L119.64 54.69 L123.86 52.25 L124.01 52.51 L124.16 52.77 Z" stroke="rgb(0, 0, 0)" stroke-width="0" fill-rule="evenodd" stroke-linejoin="miter" fill="rgb(0, 0, 0)" shape-rendering="geometricPrecision" /></g><g id="Solid"><path d="M111.76 54.95 L111.76 54.95 L111.61 55.21 L111.46 55.47 L106.14 52.39 L106.29 52.13 L106.44 51.87 Z" stroke="rgb(0, 0, 0)" stroke-width="0" fill-rule="evenodd" stroke-linejoin="miter" fill="rgb(0, 0, 0)" shape-rendering="geometricPrecision" /></g><g><text xml:space="preserve" text-anchor="end" text-rendering="geometricPrecision"><tspan x="104.68" y="54.14" font-family="Arial" font-size="10" fill="rgb(0, 0, 0)">Br</tspan></text></g><g><text xml:space="preserve" text-anchor="start" text-rendering="geometricPrecision"><tspan x="248" y="63.97" font-family="Arial" font-size="10" fill="rgb(0, 0, 0)">+</tspan></text></g><g><text xml:space="preserve" text-anchor="start" text-rendering="geometricPrecision"><tspan x="285.74" y="61.29" font-family="Arial" font-size="10" fill="rgb(0, 0, 0)">P</tspan></text></g><g><text xml:space="preserve" text-anchor="start" text-rendering="geometricPrecision"><tspan x="222.2" y="71.04" font-family="Arial" font-size="10" fill="rgb(0, 0, 0)">R</tspan><tspan font-family="Arial" dy="2.26" font-size="7.5" fill="rgb(0, 0, 0)">3</tspan></text></g><g id="Solid"><path d="M213.63 60.46 L213.63 60.46 L213.33 59.94 L213.63 59.77 L221.76 64.46 L221.61 64.72 L221.46 64.98 Z" stroke="rgb(0, 0, 0)" stroke-width="0" fill-rule="evenodd" stroke-linejoin="miter" fill="rgb(0, 0, 0)" shape-rendering="geometricPrecision" /></g><g><text xml:space="preserve" text-anchor="end" text-rendering="geometricPrecision"><tspan x="203.64" y="71.04" font-family="Arial" font-size="10" fill="rgb(0, 0, 0)">R</tspan><tspan font-family="Arial" dy="2.26" font-size="7.5" fill="rgb(0, 0, 0)">1</tspan></text></g><g id="Solid"><path d="M213.03 59.77 L213.03 59.77 L213.33 59.94 L213.03 60.46 L204.47 65.4 L204.32 65.14 L204.17 64.88 Z" stroke="rgb(0, 0, 0)" stroke-width="0" fill-rule="evenodd" stroke-linejoin="miter" fill="rgb(0, 0, 0)" shape-rendering="geometricPrecision" /></g><g><text xml:space="preserve" text-anchor="start" text-rendering="geometricPrecision"><tspan x="210.01" y="49.44" font-family="Arial" font-size="10" fill="rgb(0, 0, 0)">Br</tspan></text></g><g id="Solid"><path d="M213.63 59.77 L213.63 59.77 L213.33 59.94 L213.03 59.77 L213.03 51.1 L213.33 51.1 L213.63 51.1 Z" stroke="rgb(0, 0, 0)" stroke-width="0" fill-rule="evenodd" stroke-linejoin="miter" fill="rgb(0, 0, 0)" shape-rendering="geometricPrecision" /></g><g><text xml:space="preserve" text-anchor="start" text-rendering="geometricPrecision"><tspan x="209.73" y="78.24" font-family="Arial" font-size="10" fill="rgb(0, 0, 0)">R</tspan><tspan font-family="Arial" dy="2.26" font-size="7.5" fill="rgb(0, 0, 0)">2</tspan></text></g><g id="Solid"><path d="M213.03 60.46 L213.03 60.46 L213.33 59.94 L213.63 60.46 L213.63 69.5 L213.33 69.5 L213.03 69.5 Z" stroke="rgb(0, 0, 0)" stroke-width="0" fill-rule="evenodd" stroke-linejoin="miter" fill="rgb(0, 0, 0)" shape-rendering="geometricPrecision" /></g><g><text xml:space="preserve" text-anchor="start" text-rendering="geometricPrecision"><tspan x="285.16" y="75.69" font-family="Arial" font-size="10" fill="rgb(0, 0, 0)">OH</tspan></text></g><g id="Solid"><path d="M288.76 62.9 L288.76 62.9 L289.06 62.9 L289.36 62.9 L289.36 66.9 L289.06 66.9 L288.76 66.9 Z" stroke="rgb(0, 0, 0)" stroke-width="0" fill-rule="evenodd" stroke-linejoin="miter" fill="rgb(0, 0, 0)" shape-rendering="geometricPrecision" /></g><g><text xml:space="preserve" text-anchor="start" text-rendering="geometricPrecision"><tspan x="298.21" y="54.09" font-family="Arial" font-size="10" fill="rgb(0, 0, 0)">Br</tspan></text></g><g id="Solid"><path d="M293.54 55.15 L293.54 55.15 L293.39 54.89 L293.24 54.63 L297.46 52.19 L297.61 52.45 L297.76 52.71 Z" stroke="rgb(0, 0, 0)" stroke-width="0" fill-rule="evenodd" stroke-linejoin="miter" fill="rgb(0, 0, 0)" shape-rendering="geometricPrecision" /></g><g><text xml:space="preserve" text-anchor="end" text-rendering="geometricPrecision"><tspan x="278.27" y="54.09" font-family="Arial" font-size="10" fill="rgb(0, 0, 0)">Br</tspan></text></g><g id="Solid"><path d="M285.36 54.91 L285.36 54.91 L285.21 55.17 L285.06 55.43 L279.74 52.35 L279.89 52.09 L280.04 51.83 Z" stroke="rgb(0, 0, 0)" stroke-width="0" fill-rule="evenodd" stroke-linejoin="miter" fill="rgb(0, 0, 0)" shape-rendering="geometricPrecision" /></g></g></g></svg>