<?xml version="1.0"?><svg xmlns="http://www.w3.org/2000/svg" xmlns:xlink="http://www.w3.org/1999/xlink" viewBox="17.95 26.29 296.24 64.21" preserveAspectRatio="xMidYMid" width="100%" height="100%"><clipPath id="493"><rect x="0.3" y="0.3" width="539.4" height="719.15" /></clipPath><g id="drawing"><rect x="17.95" y="26.29" width="100%" height="100%" fill="rgb(255, 255, 255)" /><g id="page" clip-path="url(#493)"><g><text xml:space="preserve" text-anchor="start" text-rendering="geometricPrecision"><tspan x="17.95" y="87.95" font-family="Arial" font-size="10" fill="rgb(0, 0, 0)">R = Alkyl, Aryl, H</tspan></text></g><g id="Solid"><path d="M39.9 45.39 L39.9 45.39 L39.75 45.13 L39.6 44.87 L52.07 37.67 L52.22 37.93 L52.37 38.19 Z" stroke="rgb(0, 0, 0)" stroke-width="0" fill-rule="evenodd" stroke-linejoin="miter" fill="rgb(0, 0, 0)" shape-rendering="geometricPrecision" /><line x1="41.05" y1="47.37" x2="53.52" y2="40.17" stroke="rgb(0, 0, 0)" stroke-width="0.6" shape-rendering="auto" /><line x1="38.45" y1="42.89" x2="50.92" y2="35.69" stroke="rgb(0, 0, 0)" stroke-width="0.6" shape-rendering="auto" /></g><g id="Solid"><path d="M39.6 44.87 L39.6 44.87 L39.75 45.13 L39.9 45.39 L30.89 50.59 L30.74 50.33 L30.59 50.07 Z" stroke="rgb(0, 0, 0)" stroke-width="0" fill-rule="evenodd" stroke-linejoin="miter" fill="rgb(0, 0, 0)" shape-rendering="geometricPrecision" /></g><g><text xml:space="preserve" text-anchor="end" text-rendering="geometricPrecision"><tspan x="30.05" y="56.23" font-family="Arial" font-size="10" fill="rgb(0, 0, 0)">R</tspan><tspan font-family="Arial" dy="2.26" font-size="7.5" fill="rgb(0, 0, 0)">1</tspan></text></g><g><text xml:space="preserve" text-anchor="start" text-rendering="geometricPrecision"><tspan x="61.09" y="34.63" font-family="Arial" font-size="10" fill="rgb(0, 0, 0)">H</tspan></text></g><g id="Solid"><path d="M52.37 38.19 L52.37 38.19 L52.22 37.93 L52.07 37.67 L60.36 32.88 L60.51 33.14 L60.66 33.4 Z" stroke="rgb(0, 0, 0)" stroke-width="0" fill-rule="evenodd" stroke-linejoin="miter" fill="rgb(0, 0, 0)" shape-rendering="geometricPrecision" /></g><g><text xml:space="preserve" text-anchor="start" text-rendering="geometricPrecision"><tspan x="82.71" y="45.56" font-family="Arial" font-size="10" fill="rgb(0, 0, 0)">+</tspan></text></g><g><text xml:space="preserve" text-anchor="start" text-rendering="geometricPrecision"><tspan x="102.96" y="45.56" font-family="Arial" font-size="10" fill="rgb(0, 0, 0)">NaNH</tspan><tspan font-family="Arial" dy="2.26" font-size="7.5" fill="rgb(0, 0, 0)">2</tspan></text></g><g id="Arrow"><line x1="173.31" y1="42.36" x2="148.76" y2="42.36" stroke="rgb(0, 0, 0)" stroke-width="0.6" shape-rendering="auto" /><path d="M177.56 42.36 L171.56 40.86 C172.75 41.7 172.75 43.02 171.56 43.86 Z" stroke="rgb(0, 0, 0)" stroke-width="0" fill-rule="evenodd" stroke-linejoin="miter" stroke-miterlimit="6.93525005514877" fill="rgb(0, 0, 0)" shape-rendering="geometricPrecision" /></g><g id="Solid"><path d="M213.2 43.31 L213.2 43.31 L213.05 43.05 L212.9 42.79 L225.37 35.59 L225.52 35.85 L225.67 36.11 Z" stroke="rgb(0, 0, 0)" stroke-width="0" fill-rule="evenodd" stroke-linejoin="miter" fill="rgb(0, 0, 0)" shape-rendering="geometricPrecision" /><line x1="214.35" y1="45.29" x2="226.82" y2="38.09" stroke="rgb(0, 0, 0)" stroke-width="0.6" shape-rendering="auto" /><line x1="211.75" y1="40.81" x2="224.22" y2="33.61" stroke="rgb(0, 0, 0)" stroke-width="0.6" shape-rendering="auto" /></g><g id="Solid"><path d="M212.9 42.79 L212.9 42.79 L213.05 43.05 L213.2 43.31 L204.19 48.51 L204.04 48.25 L203.89 47.99 Z" stroke="rgb(0, 0, 0)" stroke-width="0" fill-rule="evenodd" stroke-linejoin="miter" fill="rgb(0, 0, 0)" shape-rendering="geometricPrecision" /></g><g><text xml:space="preserve" text-anchor="end" text-rendering="geometricPrecision"><tspan x="203.35" y="54.15" font-family="Arial" font-size="10" fill="rgb(0, 0, 0)">R</tspan><tspan font-family="Arial" dy="2.26" font-size="7.5" fill="rgb(0, 0, 0)">1</tspan></text></g><g><text xml:space="preserve" text-anchor="start" text-rendering="geometricPrecision"><tspan x="275.33" y="45.56" font-family="Arial" font-size="10" fill="rgb(0, 0, 0)">+</tspan></text></g><g><text xml:space="preserve" text-anchor="start" text-rendering="geometricPrecision"><tspan x="295.58" y="45.56" font-family="Arial" font-size="10" fill="rgb(0, 0, 0)">NH</tspan><tspan font-family="Arial" dy="2.26" font-size="7.5" fill="rgb(0, 0, 0)">3</tspan></text></g><g id="Charge477"><circle cx="232.64" cy="32.31" r="3.33333333333333" stroke="rgb(0, 0, 0)" stroke-width="0.48" fill="none" /><line x1="230.67" y1="32.31" x2="234.61" y2="32.31" stroke="rgb(0, 0, 0)" stroke-width="0.48" shape-rendering="auto" /></g><g><text xml:space="preserve" text-anchor="start" text-rendering="geometricPrecision"><tspan x="241.97" y="44.07" font-family="Arial" font-size="10" fill="rgb(0, 0, 0)">Na</tspan></text></g><g id="Charge483"><circle cx="256.99" cy="31.54" r="3.33333333333333" stroke="rgb(0, 0, 0)" stroke-width="0.48" fill="none" /><line x1="255.02" y1="31.54" x2="258.96" y2="31.54" stroke="rgb(0, 0, 0)" stroke-width="0.48" shape-rendering="auto" /><line x1="256.99" y1="29.57" x2="256.99" y2="33.51" stroke="rgb(0, 0, 0)" stroke-width="0.48" shape-rendering="auto" /></g></g></g></svg>