<?xml version="1.0"?><svg xmlns="http://www.w3.org/2000/svg" xmlns:xlink="http://www.w3.org/1999/xlink" viewBox="17.95 22.58 350.05 67.92" preserveAspectRatio="xMidYMid" width="100%" height="100%"><clipPath id="506"><rect x="0.3" y="0.3" width="539.4" height="719.15" /></clipPath><g id="drawing"><rect x="17.95" y="22.58" width="100%" height="100%" fill="rgb(255, 255, 255)" /><g id="page" clip-path="url(#506)"><g><text xml:space="preserve" text-anchor="start" text-rendering="geometricPrecision"><tspan x="17.95" y="87.95" font-family="Arial" font-size="10" fill="rgb(0, 0, 0)">R = Alkyl, Aryl, H</tspan></text></g><g id="Solid"><path d="M39.9 43.31 L39.9 43.31 L39.75 43.05 L39.6 42.79 L52.07 35.59 L52.22 35.85 L52.37 36.11 Z" stroke="rgb(0, 0, 0)" stroke-width="0" fill-rule="evenodd" stroke-linejoin="miter" fill="rgb(0, 0, 0)" shape-rendering="geometricPrecision" /><line x1="41.05" y1="45.29" x2="53.52" y2="38.09" stroke="rgb(0, 0, 0)" stroke-width="0.6" shape-rendering="auto" /><line x1="38.45" y1="40.81" x2="50.92" y2="33.61" stroke="rgb(0, 0, 0)" stroke-width="0.6" shape-rendering="auto" /></g><g id="Solid"><path d="M39.6 42.79 L39.6 42.79 L39.75 43.05 L39.9 43.31 L30.89 48.51 L30.74 48.25 L30.59 47.99 Z" stroke="rgb(0, 0, 0)" stroke-width="0" fill-rule="evenodd" stroke-linejoin="miter" fill="rgb(0, 0, 0)" shape-rendering="geometricPrecision" /></g><g><text xml:space="preserve" text-anchor="end" text-rendering="geometricPrecision"><tspan x="30.05" y="54.15" font-family="Arial" font-size="10" fill="rgb(0, 0, 0)">R</tspan><tspan font-family="Arial" dy="2.26" font-size="7.5" fill="rgb(0, 0, 0)">1</tspan></text></g><g><text xml:space="preserve" text-anchor="start" text-rendering="geometricPrecision"><tspan x="61.09" y="32.55" font-family="Arial" font-size="10" fill="rgb(0, 0, 0)">R</tspan><tspan font-family="Arial" dy="2.26" font-size="7.5" fill="rgb(0, 0, 0)">2</tspan></text></g><g id="Solid"><path d="M52.37 36.11 L52.37 36.11 L52.22 35.85 L52.07 35.59 L60.36 30.8 L60.51 31.06 L60.66 31.32 Z" stroke="rgb(0, 0, 0)" stroke-width="0" fill-rule="evenodd" stroke-linejoin="miter" fill="rgb(0, 0, 0)" shape-rendering="geometricPrecision" /></g><g><text xml:space="preserve" text-anchor="start" text-rendering="geometricPrecision"><tspan x="86.88" y="43.48" font-family="Arial" font-size="10" fill="rgb(0, 0, 0)">+</tspan></text></g><g><text xml:space="preserve" text-anchor="start" text-rendering="geometricPrecision"><tspan x="107.13" y="43.48" font-family="Arial" font-size="10" fill="rgb(0, 0, 0)">2 NH</tspan><tspan font-family="Arial" dy="2.26" font-size="7.5" fill="rgb(0, 0, 0)">3</tspan></text></g><g id="Arrow"><line x1="236.08" y1="40.28" x2="211.53" y2="40.28" stroke="rgb(0, 0, 0)" stroke-width="0.6" shape-rendering="auto" /><path d="M240.33 40.28 L234.33 38.78 C235.52 39.62 235.52 40.94 234.33 41.78 Z" stroke="rgb(0, 0, 0)" stroke-width="0" fill-rule="evenodd" stroke-linejoin="miter" stroke-miterlimit="6.93525005514877" fill="rgb(0, 0, 0)" shape-rendering="geometricPrecision" /></g><g id="Solid"><path d="M264.31 39.75 L264.31 39.75 L264.14 39.45 L263.97 39.15 L278.32 39.15 L278.49 39.45 L278.66 39.75 Z" stroke="rgb(0, 0, 0)" stroke-width="0" fill-rule="evenodd" stroke-linejoin="miter" fill="rgb(0, 0, 0)" shape-rendering="geometricPrecision" /><line x1="265.63" y1="42.03" x2="278.49" y2="42.03" stroke="rgb(0, 0, 0)" stroke-width="0.6" shape-rendering="auto" /></g><g id="Solid"><path d="M263.97 39.15 L263.97 39.15 L264.14 39.45 L264.31 39.75 L259.86 47.46 L259.6 47.31 L259.34 47.16 Z" stroke="rgb(0, 0, 0)" stroke-width="0" fill-rule="evenodd" stroke-linejoin="miter" fill="rgb(0, 0, 0)" shape-rendering="geometricPrecision" /></g><g><text xml:space="preserve" text-anchor="end" text-rendering="geometricPrecision"><tspan x="266.12" y="55.77" font-family="Arial" font-size="10" fill="rgb(0, 0, 0)">R</tspan><tspan font-family="Arial" dy="2.26" font-size="7.5" fill="rgb(0, 0, 0)">1</tspan></text></g><g><text xml:space="preserve" text-anchor="start" text-rendering="geometricPrecision"><tspan x="307.86" y="43.48" font-family="Arial" font-size="10" fill="rgb(0, 0, 0)">+</tspan></text></g><g><text xml:space="preserve" text-anchor="start" text-rendering="geometricPrecision"><tspan x="328.11" y="43.48" font-family="Arial" font-size="10" fill="rgb(0, 0, 0)">2 NaNH</tspan><tspan font-family="Arial" dy="2.26" font-size="7.5" fill="rgb(0, 0, 0)">2</tspan></text></g><g><text xml:space="preserve" text-anchor="start" text-rendering="geometricPrecision"><tspan x="282.07" y="30.92" font-family="Arial" font-size="10" fill="rgb(0, 0, 0)">R</tspan><tspan font-family="Arial" dy="2.26" font-size="7.5" fill="rgb(0, 0, 0)">2</tspan></text></g><g id="Solid"><path d="M278.66 39.75 L278.66 39.75 L278.49 39.45 L278.32 39.15 L282.31 32.24 L282.57 32.39 L282.83 32.54 Z" stroke="rgb(0, 0, 0)" stroke-width="0" fill-rule="evenodd" stroke-linejoin="miter" fill="rgb(0, 0, 0)" shape-rendering="geometricPrecision" /></g><g><text xml:space="preserve" text-anchor="start" text-rendering="geometricPrecision"><tspan x="148.51" y="43.48" font-family="Arial" font-size="10" fill="rgb(0, 0, 0)">+</tspan></text></g><g><text xml:space="preserve" text-anchor="start" text-rendering="geometricPrecision"><tspan x="168.76" y="43.48" font-family="Arial" font-size="10" fill="rgb(0, 0, 0)">2 NaH</tspan></text></g></g></g></svg>