<?xml version="1.0"?><svg xmlns="http://www.w3.org/2000/svg" xmlns:xlink="http://www.w3.org/1999/xlink" viewBox="17.65 34.55 238.35 64.2" preserveAspectRatio="xMidYMid" width="100%" height="100%"><clipPath id="593"><rect x="0.3" y="0.3" width="539.4" height="719.15" /></clipPath><g id="drawing"><rect x="17.65" y="34.55" width="100%" height="100%" fill="rgb(255, 255, 255)" /><g id="page" clip-path="url(#593)"><g><text xml:space="preserve" text-anchor="start" text-rendering="geometricPrecision"><tspan x="17.95" y="96.2" font-family="Arial" font-size="10" fill="rgb(0, 0, 0)">R = Alkyl, Aryl, H</tspan></text></g><g><text xml:space="preserve" text-anchor="end" text-rendering="geometricPrecision"><tspan x="37.57" y="67.75" font-family="Arial" font-size="10" fill="rgb(0, 0, 0)">R</tspan><tspan font-family="Arial" dy="2.26" font-size="7.5" fill="rgb(0, 0, 0)">2</tspan></text></g><g><text xml:space="preserve" text-anchor="start" text-rendering="geometricPrecision"><tspan x="53.52" y="42.89" font-family="Arial" font-size="10" fill="rgb(0, 0, 0)">R</tspan><tspan font-family="Arial" dy="2.26" font-size="7.5" fill="rgb(0, 0, 0)">3</tspan></text></g><g id="Solid"><path d="M53.81 44.14 L53.81 44.14 L54.07 44.29 L54.32 44.44 L50.47 51.12 L49.95 51.42 L49.78 51.12 Z" stroke="rgb(0, 0, 0)" stroke-width="0" fill-rule="evenodd" stroke-linejoin="miter" fill="rgb(0, 0, 0)" shape-rendering="geometricPrecision" /></g><g id="Solid"><path d="M49.78 51.12 L49.78 51.12 L49.95 51.42 L49.78 51.72 L35.77 51.72 L35.6 51.42 L35.77 51.12 Z" stroke="rgb(0, 0, 0)" stroke-width="0" fill-rule="evenodd" stroke-linejoin="miter" fill="rgb(0, 0, 0)" shape-rendering="geometricPrecision" /></g><g id="Solid"><path d="M35.08 51.72 L35.08 51.72 L35.6 51.42 L35.77 51.72 L31.36 59.36 L31.1 59.21 L30.84 59.06 Z" stroke="rgb(0, 0, 0)" stroke-width="0" fill-rule="evenodd" stroke-linejoin="miter" fill="rgb(0, 0, 0)" shape-rendering="geometricPrecision" /></g><g id="Solid"><path d="M35.77 51.12 L35.77 51.12 L35.6 51.42 L35.08 51.12 L32.32 46.34 L32.58 46.19 L32.84 46.04 Z" stroke="rgb(0, 0, 0)" stroke-width="0" fill-rule="evenodd" stroke-linejoin="miter" fill="rgb(0, 0, 0)" shape-rendering="geometricPrecision" /></g><g><text xml:space="preserve" text-anchor="end" text-rendering="geometricPrecision"><tspan x="37.57" y="42.89" font-family="Arial" font-size="10" fill="rgb(0, 0, 0)">R</tspan><tspan font-family="Arial" dy="2.26" font-size="7.5" fill="rgb(0, 0, 0)">1</tspan></text></g><g id="Solid"><path d="M49.78 51.72 L49.78 51.72 L49.95 51.42 L50.47 51.72 L54.71 59.06 L54.45 59.21 L54.19 59.36 Z" stroke="rgb(0, 0, 0)" stroke-width="0" fill-rule="evenodd" stroke-linejoin="miter" fill="rgb(0, 0, 0)" shape-rendering="geometricPrecision" /></g><g><text xml:space="preserve" text-anchor="start" text-rendering="geometricPrecision"><tspan x="53.52" y="67.75" font-family="Arial" font-size="10" fill="rgb(0, 0, 0)">R</tspan><tspan font-family="Arial" dy="2.26" font-size="7.5" fill="rgb(0, 0, 0)">4</tspan></text></g><g id="Solid"><path d="M50.47 51.72 L50.47 51.72 L49.95 51.42 L50.47 51.12 L59.3 51.12 L59.3 51.42 L59.3 51.72 Z" stroke="rgb(0, 0, 0)" stroke-width="0" fill-rule="evenodd" stroke-linejoin="miter" fill="rgb(0, 0, 0)" shape-rendering="geometricPrecision" /></g><g><text xml:space="preserve" text-anchor="start" text-rendering="geometricPrecision"><tspan x="60.4" y="55.32" font-family="Arial" font-size="10" fill="rgb(0, 0, 0)">OH</tspan></text></g><g><text xml:space="preserve" text-anchor="start" text-rendering="geometricPrecision"><tspan x="17.65" y="55.32" font-family="Arial" font-size="10" fill="rgb(0, 0, 0)">H</tspan></text></g><g id="Solid"><path d="M35.08 51.12 L35.08 51.12 L35.6 51.42 L35.08 51.72 L25.7 51.72 L25.7 51.42 L25.7 51.12 Z" stroke="rgb(0, 0, 0)" stroke-width="0" fill-rule="evenodd" stroke-linejoin="miter" fill="rgb(0, 0, 0)" shape-rendering="geometricPrecision" /></g><g id="Arrow"><line x1="144.41" y1="52.25" x2="89.82" y2="52.25" stroke="rgb(0, 0, 0)" stroke-width="0.6" shape-rendering="auto" /><path d="M148.66 52.25 L142.66 50.75 C143.85 51.59 143.85 52.91 142.66 53.75 Z" stroke="rgb(0, 0, 0)" stroke-width="0" fill-rule="evenodd" stroke-linejoin="miter" stroke-miterlimit="6.93525005514877" fill="rgb(0, 0, 0)" shape-rendering="geometricPrecision" /></g><g><text xml:space="preserve" text-anchor="start" text-rendering="geometricPrecision"><tspan x="104.22" y="46.1" font-family="Arial" font-size="10" fill="rgb(0, 0, 0)">H</tspan><tspan font-family="Arial" dy="2.26" font-size="7.5" fill="rgb(0, 0, 0)">2</tspan><tspan font-family="Arial" dy="-2.26" font-size="10" fill="rgb(0, 0, 0)">SO</tspan><tspan font-family="Arial" dy="2.26" font-size="7.5" fill="rgb(0, 0, 0)">4</tspan></text></g><g><text xml:space="preserve" text-anchor="end" text-rendering="geometricPrecision"><tspan x="174.45" y="67.75" font-family="Arial" font-size="10" fill="rgb(0, 0, 0)">R</tspan><tspan font-family="Arial" dy="2.26" font-size="7.5" fill="rgb(0, 0, 0)">2</tspan></text></g><g><text xml:space="preserve" text-anchor="start" text-rendering="geometricPrecision"><tspan x="190.4" y="42.89" font-family="Arial" font-size="10" fill="rgb(0, 0, 0)">R</tspan><tspan font-family="Arial" dy="2.26" font-size="7.5" fill="rgb(0, 0, 0)">3</tspan></text></g><g id="Solid"><path d="M190.68 44.14 L190.68 44.14 L190.94 44.29 L191.2 44.44 L187.17 51.42 L186.82 51.42 L186.65 51.12 Z" stroke="rgb(0, 0, 0)" stroke-width="0" fill-rule="evenodd" stroke-linejoin="miter" fill="rgb(0, 0, 0)" shape-rendering="geometricPrecision" /></g><g id="Solid"><path d="M186.65 51.12 L186.65 51.12 L186.82 51.42 L186.65 51.72 L172.64 51.72 L172.47 51.42 L172.64 51.12 Z" stroke="rgb(0, 0, 0)" stroke-width="0" fill-rule="evenodd" stroke-linejoin="miter" fill="rgb(0, 0, 0)" shape-rendering="geometricPrecision" /><line x1="185.33" y1="54" x2="173.96" y2="54" stroke="rgb(0, 0, 0)" stroke-width="0.6" shape-rendering="auto" /></g><g id="Solid"><path d="M172.12 51.42 L172.12 51.42 L172.47 51.42 L172.64 51.72 L168.23 59.36 L167.97 59.21 L167.71 59.06 Z" stroke="rgb(0, 0, 0)" stroke-width="0" fill-rule="evenodd" stroke-linejoin="miter" fill="rgb(0, 0, 0)" shape-rendering="geometricPrecision" /></g><g><text xml:space="preserve" text-anchor="end" text-rendering="geometricPrecision"><tspan x="174.45" y="42.89" font-family="Arial" font-size="10" fill="rgb(0, 0, 0)">R</tspan><tspan font-family="Arial" dy="2.26" font-size="7.5" fill="rgb(0, 0, 0)">1</tspan></text></g><g id="Solid"><path d="M172.64 51.12 L172.64 51.12 L172.47 51.42 L172.12 51.42 L169.19 46.34 L169.45 46.19 L169.71 46.04 Z" stroke="rgb(0, 0, 0)" stroke-width="0" fill-rule="evenodd" stroke-linejoin="miter" fill="rgb(0, 0, 0)" shape-rendering="geometricPrecision" /></g><g><text xml:space="preserve" text-anchor="start" text-rendering="geometricPrecision"><tspan x="190.4" y="67.75" font-family="Arial" font-size="10" fill="rgb(0, 0, 0)">R</tspan><tspan font-family="Arial" dy="2.26" font-size="7.5" fill="rgb(0, 0, 0)">4</tspan></text></g><g id="Solid"><path d="M186.65 51.72 L186.65 51.72 L186.82 51.42 L187.17 51.42 L191.58 59.06 L191.32 59.21 L191.06 59.36 Z" stroke="rgb(0, 0, 0)" stroke-width="0" fill-rule="evenodd" stroke-linejoin="miter" fill="rgb(0, 0, 0)" shape-rendering="geometricPrecision" /></g><g><text xml:space="preserve" text-anchor="start" text-rendering="geometricPrecision"><tspan x="216.19" y="55.45" font-family="Arial" font-size="10" fill="rgb(0, 0, 0)">+</tspan></text></g><g><text xml:space="preserve" text-anchor="start" text-rendering="geometricPrecision"><tspan x="236.44" y="55.45" font-family="Arial" font-size="10" fill="rgb(0, 0, 0)">H</tspan><tspan font-family="Arial" dy="2.26" font-size="7.5" fill="rgb(0, 0, 0)">2</tspan><tspan font-family="Arial" dy="-2.26" font-size="10" fill="rgb(0, 0, 0)">O</tspan></text></g></g></g></svg>