<?xml version="1.0"?><svg xmlns="http://www.w3.org/2000/svg" xmlns:xlink="http://www.w3.org/1999/xlink" viewBox="17.68 38.54 276.54 71.26" preserveAspectRatio="xMidYMid" width="100%" height="100%"><clipPath id="97"><rect x="0.3" y="0.3" width="539.4" height="719.15" /></clipPath><g id="drawing"><rect x="17.68" y="38.54" width="100%" height="100%" fill="rgb(255, 255, 255)" /><g id="page" clip-path="url(#97)"><g id="Arrow"><line x1="168.04" y1="54.63" x2="143.49" y2="54.63" stroke="rgb(0, 0, 0)" stroke-width="0.6" shape-rendering="auto" /><path d="M172.29 54.63 L166.29 53.13 C167.48 53.97 167.48 55.29 166.29 56.13 Z" stroke="rgb(0, 0, 0)" stroke-width="0" fill-rule="evenodd" stroke-linejoin="miter" stroke-miterlimit="6.93525005514877" fill="rgb(0, 0, 0)" shape-rendering="geometricPrecision" /></g><g><text xml:space="preserve" text-anchor="start" text-rendering="geometricPrecision"><tspan x="76.67" y="57.83" font-family="Arial" font-size="10" fill="rgb(0, 0, 0)">+</tspan></text></g><g><text xml:space="preserve" text-anchor="end" text-rendering="geometricPrecision"><tspan x="29.07" y="68.52" font-family="Arial" font-size="10" fill="rgb(0, 0, 0)">R</tspan><tspan font-family="Arial" dy="2.26" font-size="7.5" fill="rgb(0, 0, 0)">1</tspan></text></g><g id="Solid"><path d="M29.9 62.88 L29.9 62.88 L29.75 62.62 L29.6 62.36 L38.72 57.1 L38.72 57.45 L38.72 57.8 Z" stroke="rgb(0, 0, 0)" stroke-width="0" fill-rule="evenodd" stroke-linejoin="miter" fill="rgb(0, 0, 0)" shape-rendering="geometricPrecision" /></g><g><text xml:space="preserve" text-anchor="start" text-rendering="geometricPrecision"><tspan x="47.25" y="68.52" font-family="Arial" font-size="10" fill="rgb(0, 0, 0)">OH</tspan></text></g><g id="Solid"><path d="M38.72 57.8 L38.72 57.8 L38.72 57.45 L38.72 57.1 L46.86 61.8 L46.71 62.06 L46.56 62.32 Z" stroke="rgb(0, 0, 0)" stroke-width="0" fill-rule="evenodd" stroke-linejoin="miter" fill="rgb(0, 0, 0)" shape-rendering="geometricPrecision" /></g><g><text xml:space="preserve" text-anchor="start" text-rendering="geometricPrecision"><tspan x="34.82" y="47" font-family="Arial" font-size="10" fill="rgb(0, 0, 0)">O</tspan></text></g><g id="Solid"><line x1="37.43" y1="57.45" x2="37.43" y2="48.8" stroke="rgb(0, 0, 0)" stroke-width="0.6" shape-rendering="auto" /><path d="M39.71 57.68 L39.71 57.68 L40.31 58.02 L40.31 48.8 L39.71 48.8 Z" stroke="rgb(0, 0, 0)" stroke-width="0" fill-rule="evenodd" stroke-linejoin="miter" fill="rgb(0, 0, 0)" shape-rendering="geometricPrecision" /><path d="M37.13 58.02 L37.13 58.02 L37.73 57.68 L37.73 48.8 L37.13 48.8 Z" stroke="rgb(0, 0, 0)" stroke-width="0" fill-rule="evenodd" stroke-linejoin="miter" fill="rgb(0, 0, 0)" shape-rendering="geometricPrecision" /></g><g><text xml:space="preserve" text-anchor="end" text-rendering="geometricPrecision"><tspan x="108.31" y="61.35" font-family="Arial" font-size="10" fill="rgb(0, 0, 0)">R</tspan><tspan font-family="Arial" dy="2.26" font-size="7.5" fill="rgb(0, 0, 0)">2</tspan></text></g><g><text xml:space="preserve" text-anchor="start" text-rendering="geometricPrecision"><tspan x="114.07" y="54.17" font-family="Arial" font-size="10" fill="rgb(0, 0, 0)">OH</tspan></text></g><g id="Solid"><path d="M109.15 55.71 L109.15 55.71 L109 55.45 L108.85 55.19 L113.26 52.64 L113.41 52.9 L113.56 53.16 Z" stroke="rgb(0, 0, 0)" stroke-width="0" fill-rule="evenodd" stroke-linejoin="miter" fill="rgb(0, 0, 0)" shape-rendering="geometricPrecision" /></g><g><text xml:space="preserve" text-anchor="end" text-rendering="geometricPrecision"><tspan x="198.08" y="68.52" font-family="Arial" font-size="10" fill="rgb(0, 0, 0)">R</tspan><tspan font-family="Arial" dy="2.26" font-size="7.5" fill="rgb(0, 0, 0)">1</tspan></text></g><g id="Solid"><path d="M198.91 62.88 L198.91 62.88 L198.76 62.62 L198.61 62.36 L207.73 57.1 L207.73 57.45 L207.73 57.8 Z" stroke="rgb(0, 0, 0)" stroke-width="0" fill-rule="evenodd" stroke-linejoin="miter" fill="rgb(0, 0, 0)" shape-rendering="geometricPrecision" /></g><g id="Solid"><path d="M207.73 57.8 L207.73 57.8 L207.73 57.45 L207.73 57.1 L215.86 61.8 L215.71 62.06 L215.56 62.32 Z" stroke="rgb(0, 0, 0)" stroke-width="0" fill-rule="evenodd" stroke-linejoin="miter" fill="rgb(0, 0, 0)" shape-rendering="geometricPrecision" /></g><g><text xml:space="preserve" text-anchor="start" text-rendering="geometricPrecision"><tspan x="203.83" y="47" font-family="Arial" font-size="10" fill="rgb(0, 0, 0)">O</tspan></text></g><g id="Solid"><line x1="206.44" y1="57.45" x2="206.44" y2="48.8" stroke="rgb(0, 0, 0)" stroke-width="0.6" shape-rendering="auto" /><path d="M208.72 57.68 L208.72 57.68 L209.32 58.02 L209.32 48.8 L208.72 48.8 Z" stroke="rgb(0, 0, 0)" stroke-width="0" fill-rule="evenodd" stroke-linejoin="miter" fill="rgb(0, 0, 0)" shape-rendering="geometricPrecision" /><path d="M206.14 58.02 L206.14 58.02 L206.74 57.68 L206.74 48.8 L206.14 48.8 Z" stroke="rgb(0, 0, 0)" stroke-width="0" fill-rule="evenodd" stroke-linejoin="miter" fill="rgb(0, 0, 0)" shape-rendering="geometricPrecision" /></g><g><text xml:space="preserve" text-anchor="start" text-rendering="geometricPrecision"><tspan x="216.26" y="68.52" font-family="Arial" font-size="10" fill="rgb(0, 0, 0)">O</tspan></text></g><g><text xml:space="preserve" text-anchor="start" text-rendering="geometricPrecision"><tspan x="228.99" y="61.35" font-family="Arial" font-size="10" fill="rgb(0, 0, 0)">R</tspan><tspan font-family="Arial" dy="2.26" font-size="7.5" fill="rgb(0, 0, 0)">2</tspan></text></g><g id="Solid"><path d="M224.84 62.27 L224.84 62.27 L224.69 62.01 L224.54 61.75 L228.26 59.6 L228.41 59.86 L228.56 60.12 Z" stroke="rgb(0, 0, 0)" stroke-width="0" fill-rule="evenodd" stroke-linejoin="miter" fill="rgb(0, 0, 0)" shape-rendering="geometricPrecision" /></g><g><text xml:space="preserve" text-anchor="end" text-rendering="geometricPrecision"><tspan x="294.22" y="57.83" font-family="Arial" font-size="10" fill="rgb(0, 0, 0)">H</tspan><tspan font-family="Arial" dy="2.26" font-size="7.5" fill="rgb(0, 0, 0)">2</tspan><tspan font-family="Arial" dy="-2.26" font-size="10" fill="rgb(0, 0, 0)">O</tspan></text></g><g><text xml:space="preserve" text-anchor="start" text-rendering="geometricPrecision"><tspan x="18" y="107.25" font-family="Arial" font-size="10" fill="rgb(0, 0, 0)">R = Alkyl, Aryl, H</tspan></text></g><g><text xml:space="preserve" text-anchor="start" text-rendering="geometricPrecision"><tspan x="254.78" y="57.83" font-family="Arial" font-size="10" fill="rgb(0, 0, 0)">+</tspan></text></g></g></g></svg>