<?xml version="1.0"?><svg xmlns="http://www.w3.org/2000/svg" xmlns:xlink="http://www.w3.org/1999/xlink" viewBox="17.92 37.32 294.82 72.48" preserveAspectRatio="xMidYMid" width="100%" height="100%"><clipPath id="231"><rect x="0.3" y="0.3" width="539.4" height="719.15" /></clipPath><g id="drawing"><rect x="17.92" y="37.32" width="100%" height="100%" fill="rgb(255, 255, 255)" /><g id="page" clip-path="url(#231)"><g><text xml:space="preserve" text-anchor="start" text-rendering="geometricPrecision"><tspan x="18" y="107.25" font-family="Arial" font-size="10" fill="rgb(0, 0, 0)">R = Alkyl, Aryl, H</tspan></text></g><g><text xml:space="preserve" text-anchor="start" text-rendering="geometricPrecision"><tspan x="45.26" y="45.66" font-family="Arial" font-size="10" fill="rgb(0, 0, 0)">R</tspan><tspan font-family="Arial" dy="2.26" font-size="7.5" fill="rgb(0, 0, 0)">3</tspan></text></g><g id="Solid"><path d="M45.62 46.95 L45.62 46.95 L45.88 47.1 L46.14 47.24 L42.21 54.29 L41.86 54.29 L41.68 53.99 Z" stroke="rgb(0, 0, 0)" stroke-width="0" fill-rule="evenodd" stroke-linejoin="miter" fill="rgb(0, 0, 0)" shape-rendering="geometricPrecision" /></g><g id="Solid"><path d="M41.69 54.59 L41.69 54.59 L41.86 54.29 L42.21 54.29 L46.72 61.87 L46.46 62.03 L46.21 62.18 Z" stroke="rgb(0, 0, 0)" stroke-width="0" fill-rule="evenodd" stroke-linejoin="miter" fill="rgb(0, 0, 0)" shape-rendering="geometricPrecision" /></g><g><text xml:space="preserve" text-anchor="start" text-rendering="geometricPrecision"><tspan x="45.6" y="70.52" font-family="Arial" font-size="10" fill="rgb(0, 0, 0)">R</tspan><tspan font-family="Arial" dy="2.26" font-size="7.5" fill="rgb(0, 0, 0)">4</tspan></text></g><g id="Solid"><path d="M41.68 53.99 L41.68 53.99 L41.86 54.29 L41.69 54.59 L27.69 54.79 L27.51 54.49 L27.68 54.19 Z" stroke="rgb(0, 0, 0)" stroke-width="0" fill-rule="evenodd" stroke-linejoin="miter" fill="rgb(0, 0, 0)" shape-rendering="geometricPrecision" /><line x1="40.4" y1="56.89" x2="29.04" y2="57.05" stroke="rgb(0, 0, 0)" stroke-width="0.6" shape-rendering="auto" /></g><g id="Solid"><path d="M27.16 54.49 L27.16 54.49 L27.51 54.49 L27.69 54.79 L23.35 62.55 L23.09 62.4 L22.82 62.26 Z" stroke="rgb(0, 0, 0)" stroke-width="0" fill-rule="evenodd" stroke-linejoin="miter" fill="rgb(0, 0, 0)" shape-rendering="geometricPrecision" /></g><g><text xml:space="preserve" text-anchor="end" text-rendering="geometricPrecision"><tspan x="29.66" y="70.91" font-family="Arial" font-size="10" fill="rgb(0, 0, 0)">R</tspan><tspan font-family="Arial" dy="2.26" font-size="7.5" fill="rgb(0, 0, 0)">2</tspan></text></g><g id="Solid"><path d="M27.68 54.19 L27.68 54.19 L27.51 54.49 L27.16 54.49 L24.15 49.43 L24.41 49.27 L24.66 49.12 Z" stroke="rgb(0, 0, 0)" stroke-width="0" fill-rule="evenodd" stroke-linejoin="miter" fill="rgb(0, 0, 0)" shape-rendering="geometricPrecision" /></g><g><text xml:space="preserve" text-anchor="end" text-rendering="geometricPrecision"><tspan x="29.32" y="46.06" font-family="Arial" font-size="10" fill="rgb(0, 0, 0)">R</tspan><tspan font-family="Arial" dy="2.26" font-size="7.5" fill="rgb(0, 0, 0)">1</tspan></text></g><g><text xml:space="preserve" text-anchor="start" text-rendering="geometricPrecision"><tspan x="71.4" y="58.42" font-family="Arial" font-size="10" fill="rgb(0, 0, 0)">+</tspan></text></g><g><text xml:space="preserve" text-anchor="start" text-rendering="geometricPrecision"><tspan x="91.65" y="58.42" font-family="Arial" font-size="10" fill="rgb(0, 0, 0)">X</tspan><tspan font-family="Arial" dy="2.26" font-size="7.5" fill="rgb(0, 0, 0)">2</tspan></text></g><g id="Arrow"><line x1="195.28" y1="55.22" x2="170.73" y2="55.22" stroke="rgb(0, 0, 0)" stroke-width="0.6" shape-rendering="auto" /><path d="M199.53 55.22 L193.53 53.72 C194.72 54.56 194.72 55.88 193.53 56.72 Z" stroke="rgb(0, 0, 0)" stroke-width="0" fill-rule="evenodd" stroke-linejoin="miter" stroke-miterlimit="6.93525005514877" fill="rgb(0, 0, 0)" shape-rendering="geometricPrecision" /></g><g><text xml:space="preserve" text-anchor="start" text-rendering="geometricPrecision"><tspan x="249.8" y="45.86" font-family="Arial" font-size="10" fill="rgb(0, 0, 0)">R</tspan><tspan font-family="Arial" dy="2.26" font-size="7.5" fill="rgb(0, 0, 0)">3</tspan></text></g><g id="Solid"><path d="M250.07 47.14 L250.07 47.14 L250.33 47.29 L250.59 47.44 L246.58 54.39 L246.23 54.39 L246.06 54.09 Z" stroke="rgb(0, 0, 0)" stroke-width="0" fill-rule="evenodd" stroke-linejoin="miter" fill="rgb(0, 0, 0)" shape-rendering="geometricPrecision" /></g><g><text xml:space="preserve" text-anchor="start" text-rendering="geometricPrecision"><tspan x="249.8" y="70.71" font-family="Arial" font-size="10" fill="rgb(0, 0, 0)">R</tspan><tspan font-family="Arial" dy="2.26" font-size="7.5" fill="rgb(0, 0, 0)">4</tspan></text></g><g id="Solid"><path d="M246.06 54.69 L246.06 54.69 L246.23 54.39 L246.58 54.39 L251.01 62.06 L250.75 62.21 L250.49 62.36 Z" stroke="rgb(0, 0, 0)" stroke-width="0" fill-rule="evenodd" stroke-linejoin="miter" fill="rgb(0, 0, 0)" shape-rendering="geometricPrecision" /></g><g id="Solid"><path d="M246.06 54.09 L246.06 54.09 L246.23 54.39 L246.06 54.69 L232.05 54.69 L231.88 54.39 L232.05 54.09 Z" stroke="rgb(0, 0, 0)" stroke-width="0" fill-rule="evenodd" stroke-linejoin="miter" fill="rgb(0, 0, 0)" shape-rendering="geometricPrecision" /></g><g id="Solid"><path d="M231.33 54.74 L231.33 54.74 L231.88 54.39 L232.05 54.69 L227.62 62.36 L227.36 62.21 L227.1 62.06 Z" stroke="rgb(0, 0, 0)" stroke-width="0" fill-rule="evenodd" stroke-linejoin="miter" fill="rgb(0, 0, 0)" shape-rendering="geometricPrecision" /></g><g><text xml:space="preserve" text-anchor="end" text-rendering="geometricPrecision"><tspan x="233.85" y="70.71" font-family="Arial" font-size="10" fill="rgb(0, 0, 0)">R</tspan><tspan font-family="Arial" dy="2.26" font-size="7.5" fill="rgb(0, 0, 0)">2</tspan></text></g><g id="WedgeBegin"><path d="M231.33 54.04 L231.33 54.04 L231.88 54.39 L231.33 54.74 L220.8 55.89 L220.8 54.39 L220.8 52.89 Z" stroke="rgb(0, 0, 0)" stroke-width="0" fill-rule="evenodd" stroke-linejoin="miter" fill="rgb(0, 0, 0)" shape-rendering="geometricPrecision" /></g><g><text xml:space="preserve" text-anchor="start" text-rendering="geometricPrecision"><tspan x="214.2" y="58.29" font-family="Arial" font-size="10" fill="rgb(0, 0, 0)">X</tspan></text></g><g><text xml:space="preserve" text-anchor="start" text-rendering="geometricPrecision"><tspan x="256.68" y="58.29" font-family="Arial" font-size="10" fill="rgb(0, 0, 0)">OH</tspan></text></g><g id="Wedged Hash Begin Bond"><path d="M246.23 54.69 L246.23 54.69 L246.23 54.09 L246.83 54.01 L246.83 54.77 Z" stroke="rgb(0, 0, 0)" stroke-width="0" fill-rule="evenodd" stroke-linejoin="miter" fill="rgb(0, 0, 0)" shape-rendering="geometricPrecision" /><path d="M249.15 55.06 L249.15 55.06 L249.15 53.72 L249.75 53.64 L249.75 55.14 Z" stroke="rgb(0, 0, 0)" stroke-width="0" fill-rule="evenodd" stroke-linejoin="miter" fill="rgb(0, 0, 0)" shape-rendering="geometricPrecision" /><path d="M252.08 55.44 L252.08 55.44 L252.08 53.34 L252.68 53.26 L252.68 55.52 Z" stroke="rgb(0, 0, 0)" stroke-width="0" fill-rule="evenodd" stroke-linejoin="miter" fill="rgb(0, 0, 0)" shape-rendering="geometricPrecision" /><path d="M255 55.81 L255 55.81 L255 52.97 L255.6 52.89 L255.6 55.89 Z" stroke="rgb(0, 0, 0)" stroke-width="0" fill-rule="evenodd" stroke-linejoin="miter" fill="rgb(0, 0, 0)" shape-rendering="geometricPrecision" /></g><g><text xml:space="preserve" text-anchor="end" text-rendering="geometricPrecision"><tspan x="233.85" y="45.86" font-family="Arial" font-size="10" fill="rgb(0, 0, 0)">R</tspan><tspan font-family="Arial" dy="2.26" font-size="7.5" fill="rgb(0, 0, 0)">1</tspan></text></g><g id="Solid"><path d="M232.05 54.09 L232.05 54.09 L231.88 54.39 L231.33 54.04 L228.56 49.24 L228.82 49.09 L229.08 48.94 Z" stroke="rgb(0, 0, 0)" stroke-width="0" fill-rule="evenodd" stroke-linejoin="miter" fill="rgb(0, 0, 0)" shape-rendering="geometricPrecision" /></g><g><text xml:space="preserve" text-anchor="end" text-rendering="geometricPrecision"><tspan x="156.33" y="58.42" font-family="Arial" font-size="10" fill="rgb(0, 0, 0)">H</tspan><tspan font-family="Arial" dy="2.26" font-size="7.5" fill="rgb(0, 0, 0)">2</tspan><tspan font-family="Arial" dy="-2.26" font-size="10" fill="rgb(0, 0, 0)">O</tspan></text></g><g><text xml:space="preserve" text-anchor="start" text-rendering="geometricPrecision"><tspan x="116.89" y="58.42" font-family="Arial" font-size="10" fill="rgb(0, 0, 0)">+</tspan></text></g><g><text xml:space="preserve" text-anchor="start" text-rendering="geometricPrecision"><tspan x="278.6" y="58.42" font-family="Arial" font-size="10" fill="rgb(0, 0, 0)">+</tspan></text></g><g><text xml:space="preserve" text-anchor="start" text-rendering="geometricPrecision"><tspan x="298.85" y="58.42" font-family="Arial" font-size="10" fill="rgb(0, 0, 0)">HX</tspan></text></g><g><text xml:space="preserve" text-anchor="start" text-rendering="geometricPrecision"><tspan x="116.89" y="107.25" font-family="Arial" font-size="10" fill="rgb(0, 0, 0)">X = Cl, Br, I</tspan></text></g></g></g></svg>