<?xml version="1.0"?><svg xmlns="http://www.w3.org/2000/svg" xmlns:xlink="http://www.w3.org/1999/xlink" viewBox="18 34.71 332.49 75.09" preserveAspectRatio="xMidYMid" width="100%" height="100%"><clipPath id="313"><rect x="0.3" y="0.3" width="539.4" height="719.15" /></clipPath><g id="drawing"><rect x="18" y="34.71" width="100%" height="100%" fill="rgb(255, 255, 255)" /><g id="page" clip-path="url(#313)"><g><text xml:space="preserve" text-anchor="start" text-rendering="geometricPrecision"><tspan x="18" y="107.25" font-family="Arial" font-size="10" fill="rgb(0, 0, 0)">R = Alkyl, Aryl, H</tspan></text></g><g><text xml:space="preserve" text-anchor="start" text-rendering="geometricPrecision"><tspan x="116.89" y="107.25" font-family="Arial" font-size="10" fill="rgb(0, 0, 0)">LG = Cl, Br, I</tspan></text></g><g><text xml:space="preserve" text-anchor="start" text-rendering="geometricPrecision"><tspan x="212.89" y="107.25" font-family="Arial" font-size="10" fill="rgb(0, 0, 0)">Nu = SR, OR, NR`R</tspan></text></g><g><text xml:space="preserve" text-anchor="end" text-rendering="geometricPrecision"><tspan x="33.52" y="64.65" font-family="Arial" font-size="10" fill="rgb(0, 0, 0)">R</tspan><tspan font-family="Arial" dy="2.26" font-size="7.5" fill="rgb(0, 0, 0)">1</tspan></text></g><g id="Solid"><path d="M34.36 59.01 L34.36 59.01 L34.21 58.75 L34.06 58.49 L42.92 53.38 L43.22 53.55 L43.21 53.9 Z" stroke="rgb(0, 0, 0)" stroke-width="0" fill-rule="evenodd" stroke-linejoin="miter" fill="rgb(0, 0, 0)" shape-rendering="geometricPrecision" /></g><g><text xml:space="preserve" text-anchor="start" text-rendering="geometricPrecision"><tspan x="39.62" y="43.05" font-family="Arial" font-size="10" fill="rgb(0, 0, 0)">R</tspan><tspan font-family="Arial" dy="2.26" font-size="7.5" fill="rgb(0, 0, 0)">2</tspan></text></g><g id="WedgeBegin"><path d="M43.21 53.9 L43.21 53.9 L43.22 53.55 L43.85 53.53 L59.26 61.08 L58.51 62.38 L57.76 63.68 Z" stroke="rgb(0, 0, 0)" stroke-width="0" fill-rule="evenodd" stroke-linejoin="miter" fill="rgb(0, 0, 0)" shape-rendering="geometricPrecision" /></g><g><text xml:space="preserve" text-anchor="start" text-rendering="geometricPrecision"><tspan x="59.07" y="68.2" font-family="Arial" font-size="10" fill="rgb(0, 0, 0)">LG</tspan></text></g><g id="Solid"><path d="M43.85 53.53 L43.85 53.53 L43.22 53.55 L43.52 53.03 L51.36 48.5 L51.51 48.76 L51.66 49.02 Z" stroke="rgb(0, 0, 0)" stroke-width="0" fill-rule="evenodd" stroke-linejoin="miter" fill="rgb(0, 0, 0)" shape-rendering="geometricPrecision" /></g><g><text xml:space="preserve" text-anchor="start" text-rendering="geometricPrecision"><tspan x="52.09" y="50.25" font-family="Arial" font-size="10" fill="rgb(0, 0, 0)">R</tspan><tspan font-family="Arial" dy="2.26" font-size="7.5" fill="rgb(0, 0, 0)">3</tspan></text></g><g><text xml:space="preserve" text-anchor="start" text-rendering="geometricPrecision"><tspan x="113.49" y="55.63" font-family="Arial" font-size="10" fill="rgb(0, 0, 0)">Na</tspan></text></g><g id="Solid"><path d="M42.92 46.5 L42.92 46.5 L43.22 46.5 L43.52 46.5 L43.52 53.03 L43.22 53.55 L42.92 53.38 Z" stroke="rgb(0, 0, 0)" stroke-width="0" fill-rule="evenodd" stroke-linejoin="miter" fill="rgb(0, 0, 0)" shape-rendering="geometricPrecision" /></g><g><text xml:space="preserve" text-anchor="start" text-rendering="geometricPrecision"><tspan x="140.58" y="55.63" font-family="Arial" font-size="10" fill="rgb(0, 0, 0)">Nu</tspan></text></g><g><text xml:space="preserve" text-anchor="start" text-rendering="geometricPrecision"><tspan x="86.83" y="54.7" font-family="Arial" font-size="10" fill="rgb(0, 0, 0)">+</tspan></text></g><g id="Arrow"><line x1="192.31" y1="51.5" x2="167.76" y2="51.5" stroke="rgb(0, 0, 0)" stroke-width="0.6" shape-rendering="auto" /><path d="M196.56 51.5 L190.56 50 C191.75 50.84 191.75 52.16 190.56 53 Z" stroke="rgb(0, 0, 0)" stroke-width="0" fill-rule="evenodd" stroke-linejoin="miter" stroke-miterlimit="6.93525005514877" fill="rgb(0, 0, 0)" shape-rendering="geometricPrecision" /></g><g><text xml:space="preserve" text-anchor="end" text-rendering="geometricPrecision"><tspan x="222.36" y="64.65" font-family="Arial" font-size="10" fill="rgb(0, 0, 0)">R</tspan><tspan font-family="Arial" dy="2.26" font-size="7.5" fill="rgb(0, 0, 0)">1</tspan></text></g><g id="Solid"><path d="M223.19 59.01 L223.19 59.01 L223.04 58.75 L222.89 58.49 L231.9 53.29 L232.05 53.55 L232.2 53.81 Z" stroke="rgb(0, 0, 0)" stroke-width="0" fill-rule="evenodd" stroke-linejoin="miter" fill="rgb(0, 0, 0)" shape-rendering="geometricPrecision" /></g><g><text xml:space="preserve" text-anchor="start" text-rendering="geometricPrecision"><tspan x="228.45" y="43.05" font-family="Arial" font-size="10" fill="rgb(0, 0, 0)">R</tspan><tspan font-family="Arial" dy="2.26" font-size="7.5" fill="rgb(0, 0, 0)">2</tspan></text></g><g id="Wedged Hash Begin Bond"><path d="M231.9 53.81 L231.9 53.81 L232.2 53.29 L232.74 53.55 L232.4 54.15 Z" stroke="rgb(0, 0, 0)" stroke-width="0" fill-rule="evenodd" stroke-linejoin="miter" fill="rgb(0, 0, 0)" shape-rendering="geometricPrecision" /><path d="M234.13 55.32 L234.13 55.32 L234.62 54.47 L235.16 54.73 L234.63 55.66 Z" stroke="rgb(0, 0, 0)" stroke-width="0" fill-rule="evenodd" stroke-linejoin="miter" fill="rgb(0, 0, 0)" shape-rendering="geometricPrecision" /><path d="M236.36 56.83 L236.36 56.83 L237.04 55.64 L237.58 55.9 L236.85 57.16 Z" stroke="rgb(0, 0, 0)" stroke-width="0" fill-rule="evenodd" stroke-linejoin="miter" fill="rgb(0, 0, 0)" shape-rendering="geometricPrecision" /><path d="M238.58 58.34 L238.58 58.34 L239.46 56.81 L240 57.08 L239.08 58.67 Z" stroke="rgb(0, 0, 0)" stroke-width="0" fill-rule="evenodd" stroke-linejoin="miter" fill="rgb(0, 0, 0)" shape-rendering="geometricPrecision" /><path d="M240.81 59.84 L240.81 59.84 L241.88 57.99 L242.42 58.25 L241.31 60.18 Z" stroke="rgb(0, 0, 0)" stroke-width="0" fill-rule="evenodd" stroke-linejoin="miter" fill="rgb(0, 0, 0)" shape-rendering="geometricPrecision" /><path d="M243.04 61.35 L243.04 61.35 L244.3 59.16 L244.84 59.43 L243.54 61.69 Z" stroke="rgb(0, 0, 0)" stroke-width="0" fill-rule="evenodd" stroke-linejoin="miter" fill="rgb(0, 0, 0)" shape-rendering="geometricPrecision" /><path d="M245.27 62.86 L245.27 62.86 L246.72 60.34 L247.26 60.6 L245.76 63.2 Z" stroke="rgb(0, 0, 0)" stroke-width="0" fill-rule="evenodd" stroke-linejoin="miter" fill="rgb(0, 0, 0)" shape-rendering="geometricPrecision" /></g><g><text xml:space="preserve" text-anchor="start" text-rendering="geometricPrecision"><tspan x="247.07" y="68.2" font-family="Arial" font-size="10" fill="rgb(0, 0, 0)">Nu</tspan></text></g><g id="Solid"><path d="M232.2 53.81 L232.2 53.81 L232.05 53.55 L231.9 53.29 L240.26 48.46 L240.41 48.72 L240.56 48.98 Z" stroke="rgb(0, 0, 0)" stroke-width="0" fill-rule="evenodd" stroke-linejoin="miter" fill="rgb(0, 0, 0)" shape-rendering="geometricPrecision" /></g><g><text xml:space="preserve" text-anchor="start" text-rendering="geometricPrecision"><tspan x="240.92" y="50.25" font-family="Arial" font-size="10" fill="rgb(0, 0, 0)">R</tspan><tspan font-family="Arial" dy="2.26" font-size="7.5" fill="rgb(0, 0, 0)">3</tspan></text></g><g><text xml:space="preserve" text-anchor="start" text-rendering="geometricPrecision"><tspan x="302.32" y="55.63" font-family="Arial" font-size="10" fill="rgb(0, 0, 0)">Na</tspan></text></g><g><text xml:space="preserve" text-anchor="start" text-rendering="geometricPrecision"><tspan x="330.23" y="55.63" font-family="Arial" font-size="10" fill="rgb(0, 0, 0)">LG</tspan></text></g><g id="Solid"><path d="M231.75 46.5 L231.75 46.5 L232.05 46.5 L232.35 46.5 L232.35 53.55 L232.05 53.55 L231.75 53.55 Z" stroke="rgb(0, 0, 0)" stroke-width="0" fill-rule="evenodd" stroke-linejoin="miter" fill="rgb(0, 0, 0)" shape-rendering="geometricPrecision" /></g><g><text xml:space="preserve" text-anchor="start" text-rendering="geometricPrecision"><tspan x="275.66" y="54.7" font-family="Arial" font-size="10" fill="rgb(0, 0, 0)">+</tspan></text></g><g id="Charge303"><circle cx="128.5" cy="43.1" r="3.33333333333333" stroke="rgb(0, 0, 0)" stroke-width="0.48" fill="none" /><line x1="126.53" y1="43.1" x2="130.47" y2="43.1" stroke="rgb(0, 0, 0)" stroke-width="0.48" shape-rendering="auto" /><line x1="128.5" y1="41.13" x2="128.5" y2="45.07" stroke="rgb(0, 0, 0)" stroke-width="0.48" shape-rendering="auto" /></g><g id="Charge305"><circle cx="155.6" cy="43.1" r="3.33333333333333" stroke="rgb(0, 0, 0)" stroke-width="0.48" fill="none" /><line x1="153.63" y1="43.1" x2="157.57" y2="43.1" stroke="rgb(0, 0, 0)" stroke-width="0.48" shape-rendering="auto" /></g><g id="Charge306"><circle cx="310.93" cy="43.1" r="3.33333333333333" stroke="rgb(0, 0, 0)" stroke-width="0.48" fill="none" /><line x1="308.96" y1="43.1" x2="312.9" y2="43.1" stroke="rgb(0, 0, 0)" stroke-width="0.48" shape-rendering="auto" /><line x1="310.93" y1="41.13" x2="310.93" y2="45.07" stroke="rgb(0, 0, 0)" stroke-width="0.48" shape-rendering="auto" /></g><g id="Charge307"><circle cx="346.56" cy="44.86" r="3.33333333333333" stroke="rgb(0, 0, 0)" stroke-width="0.48" fill="none" /><line x1="344.59" y1="44.86" x2="348.53" y2="44.86" stroke="rgb(0, 0, 0)" stroke-width="0.48" shape-rendering="auto" /></g></g></g></svg>